<svg xmlns="http://www.w3.org/2000/svg" width="805.471" height="453.125" viewBox="0 0 805.471 453.125">
  <g id="Group_253" data-name="Group 253" transform="translate(-858 -208.051)">
    <path id="Path_6" data-name="Path 6" d="M502,225.772c-14.249-3.148-28.093-7.5-40.735-14.038a88.171,88.171,0,0,1-7.693-4.5c-22.672-14.882-38.155-39.5-56.315-59.107-77.787-83.986-214.194-57.435-285.6,20.92A231.31,231.31,0,0,0,54.077,289.877C40.59,380.566,80.433,477.2,174.839,501.507c56.9,14.655,111.738-1.542,168.232-7.887a229.768,229.768,0,0,1,45.8-.325c6.833.584,13.649,1.444,20.433,2.515,11.377,1.785,22.672,4.155,33.854,6.93,9.494,2.337,18.891,4.966,28.174,7.725,1.688.5,3.376,1.022,5.063,1.542,25.415,7.936,52.112,18.7,79.053,26.648.86.26,1.737.519,2.613.763,20.043,5.778,40.2,9.9,60.048,10.013,92.263.536,136.942-105.279,114.546-184.2-22.25-78.42-98.739-111.787-172.338-128.373-4.138-.925-8.261-1.818-12.367-2.645q-6.062-1.217-12.042-2.3c-2.532-.471-5.047-.909-7.563-1.331-2.759-.487-5.5-.941-8.228-1.379l-3.262-.536C511.871,227.817,506.905,226.859,502,225.772Z" transform="translate(925.114 111.617)" fill="#ecf4fa"/>
    <g id="Group_117" data-name="Group 117" transform="translate(858 267.144)">
      <path id="Path_40" data-name="Path 40" d="M-882.969,487.633a38.6,38.6,0,0,1-15.354,0,38.6,38.6,0,0,1-14.019-5.919,38.6,38.6,0,0,1-14.019,5.919,38.6,38.6,0,0,1-15.355,0c-9.718,20.232-8.938,42.284.668,56.744,1.656,2.493,11.658,17.345,28.706,21.632.057.015-.032.026,0,.034.031-.008-.058-.019,0-.034,17.047-4.287,27.049-19.139,28.705-21.632C-874.031,529.916-873.251,507.864-882.969,487.633Z" transform="translate(955.997 -361.162)" fill="#d2d3d5"/>
      <g id="Group_66" data-name="Group 66" transform="translate(0 126.985)">
        <g id="Group_65" data-name="Group 65" transform="translate(0 0)">
          <path id="Path_41" data-name="Path 41" d="M-924.956,578.691a5.882,5.882,0,0,1-1.747-.266L-931.285,577c-12.652-4.833-20.512-15.133-23.3-19.337-9.462-14.243-9.875-35.317-1.053-53.687l2.5-5.2,5.656,1.15a24.2,24.2,0,0,0,9.6,0,24.3,24.3,0,0,0,8.766-3.7l4.171-2.844,4.172,2.844a24.3,24.3,0,0,0,8.764,3.7,24.2,24.2,0,0,0,9.6,0l5.656-1.15,2.5,5.2c8.821,18.37,8.409,39.444-1.053,53.689-2.791,4.2-10.648,14.5-23.3,19.333l-4.591,1.427A5.876,5.876,0,0,1-924.956,578.691Zm-5.742-3.3,4.5,1.4a4.156,4.156,0,0,0,2.476,0l4.539-1.409c12.134-4.64,19.729-14.6,22.429-18.662,9.134-13.751,9.5-34.161.935-52l-1.919-4-4.345.884a25.949,25.949,0,0,1-10.283,0,26.021,26.021,0,0,1-9.387-3.963l-3.206-2.185-3.2,2.185a26.025,26.025,0,0,1-9.39,3.963,25.93,25.93,0,0,1-10.282,0l-4.345-.884-1.918,4c-8.566,17.836-8.2,38.246.935,52C-950.461,560.778-942.872,570.728-930.7,575.387Z" transform="translate(961.982 -493.381)" fill="#031b2f"/>
        </g>
      </g>
      <g id="Group_68" data-name="Group 68" transform="translate(23.701 157.792)">
        <g id="Group_67" data-name="Group 67">
          <path id="Path_42" data-name="Path 42" d="M-909.5,573.556l-9.5-9.5,1.213-1.213,8.1,8.1,16.031-21.689,1.379,1.02Z" transform="translate(919.002 -549.245)" fill="#031b2f"/>
        </g>
      </g>
      <path id="Path_43" data-name="Path 43" d="M-740.6,686.571c-11.568,0-22.321-8.024-27.651-13.97a5.14,5.14,0,0,1,.4-7.258,5.141,5.141,0,0,1,7.259.4c.636.7,15.9,17.307,28.751,7.413,7.242-5.578,8.671-9.764,8.685-9.806a1.427,1.427,0,0,0-.044.157l9.959,2.552c-.307,1.2-2.342,7.551-12.325,15.242A24.139,24.139,0,0,1-740.6,686.571Z" transform="translate(875.674 -442.634)" fill="#fff" stroke="#2a333a" stroke-linecap="round" stroke-linejoin="round" stroke-width="2"/>
      <path id="Path_44" data-name="Path 44" d="M-731.575,670.372a115.849,115.849,0,0,0,7.224,14.227,54.307,54.307,0,0,0,4.443,6.373,23.886,23.886,0,0,0,2.505,2.634,9.243,9.243,0,0,0,2.529,1.681,3.75,3.75,0,0,0,.537.173,2.472,2.472,0,0,0,.261.046l.514.054c.557.051,1.172.085,1.784.093a24.971,24.971,0,0,0,3.707-.253,34.361,34.361,0,0,0,7.41-1.98,49.52,49.52,0,0,0,7.1-3.424,53.524,53.524,0,0,0,6.536-4.433l.069-.055a2.042,2.042,0,0,1,2.873.316,2.047,2.047,0,0,1-.229,2.8,57.369,57.369,0,0,1-6.862,5.237,54.511,54.511,0,0,1-7.57,4.17,39.506,39.506,0,0,1-8.406,2.737,30.916,30.916,0,0,1-4.513.558c-.766.031-1.53.035-2.348,0l-.517-.025c-.225-.011-.518-.04-.766-.075a9.321,9.321,0,0,1-1.465-.332,14.859,14.859,0,0,1-4.56-2.488,30.21,30.21,0,0,1-3.418-3.125,60.769,60.769,0,0,1-5.49-6.831c-1.653-2.353-3.178-4.757-4.625-7.2-1.451-2.459-2.8-4.89-4.122-7.507a4.066,4.066,0,0,1,1.8-5.459,4.065,4.065,0,0,1,5.459,1.8c.036.072.071.145.1.218Z" transform="translate(862.144 -444.654)" fill="#fff" stroke="#2a333a" stroke-linecap="round" stroke-linejoin="round" stroke-width="2"/>
      <g id="Group_69" data-name="Group 69" transform="translate(180.481 155.985)">
        <path id="Path_45" data-name="Path 45" d="M-616.164,571.037c-3.4,0-7.613-3.279-10.784-6.315a2.8,2.8,0,0,1-.087-3.952,2.8,2.8,0,0,1,3.952-.088,29.771,29.771,0,0,0,5.749,4.363c-.589-4.531-5.982-7.949-9.593-10.238-1.076-.683-2.007-1.272-2.716-1.829a8.576,8.576,0,0,0-2.9-1.489,2.808,2.808,0,0,1-2.077-3.354,2.781,2.781,0,0,1,3.319-2.1,13.872,13.872,0,0,1,5.113,2.543c.489.384,1.309.9,2.259,1.505,4.427,2.806,11.835,7.5,12.227,15.165.184,3.577-1.559,4.922-2.613,5.4A4.4,4.4,0,0,1-616.164,571.037Z" transform="translate(634.697 -545.968)" fill="#fff" stroke="#2a333a" stroke-linecap="round" stroke-linejoin="round" stroke-width="2"/>
      </g>
      <g id="Group_71" data-name="Group 71" transform="translate(186.608 168.433)">
        <g id="Group_70" data-name="Group 70">
          <path id="Path_46" data-name="Path 46" d="M-623.586,568.542" transform="translate(623.586 -568.542)" fill="#fbc9a7"/>
        </g>
      </g>
      <g id="Group_81" data-name="Group 81" transform="translate(183.206 165.508)">
        <g id="Group_74" data-name="Group 74" transform="translate(1.27 3.047)">
          <g id="Group_73" data-name="Group 73">
            <path id="Path_47" data-name="Path 47" d="M-623.682,571.98c-.177-.213-.766-.782-1.073-1.081,0,0-1.776-.958-2.21-1.228s-.726-1.138.707-.539c1.521.632,2.887,1.349,2.924,1.379.126.1.261.232.4.371Z" transform="translate(627.393 -568.836)" fill="#fbc9a7"/>
            <g id="Group_72" data-name="Group 72">
              <path id="Path_48" data-name="Path 48" d="M-623.757,571.922c-.4-.319-.8-.634-1.177-.972l.038.029a10.921,10.921,0,0,1-1.764-1.043c-.261-.2-.628-.352-.764-.726a.334.334,0,0,1,.026-.314.413.413,0,0,1,.288-.127,1.732,1.732,0,0,1,.542.064,14.455,14.455,0,0,1,1.932.732c.313.141.62.293.921.459a3.443,3.443,0,0,1,.476.294c.122.116.243.244.363.377l.014.014a.15.15,0,0,1,.006.194c-.279.346-.56.69-.866,1.018A.025.025,0,0,1-623.757,571.922Zm.014-.054c.19-.394.4-.774.617-1.15l.019.208c-.123-.108-.248-.214-.386-.319l-.419-.2-.916-.44-1.818-.9a1.493,1.493,0,0,0-.458-.128c-.162-.014-.239.071-.189.226.089.313.429.442.739.581a13.144,13.144,0,0,1,1.822.928l.018.012.02.017A8.925,8.925,0,0,1-623.743,571.868Z" transform="translate(627.451 -568.764)" fill="#2a333a"/>
            </g>
          </g>
        </g>
        <g id="Group_77" data-name="Group 77" transform="translate(0.564 2.039)">
          <g id="Group_76" data-name="Group 76">
            <path id="Path_49" data-name="Path 49" d="M-624.248,570.582c-.213-.243-.92-.893-1.292-1.234,0,0-2.109-1.072-2.629-1.375s-.885-1.313.814-.656c1.8.7,3.424,1.5,3.471,1.532.149.119.313.263.481.423Z" transform="translate(628.674 -567.009)" fill="#fbc9a7"/>
            <g id="Group_75" data-name="Group 75">
              <path id="Path_50" data-name="Path 50" d="M-624.322,570.523c-.466-.373-.94-.733-1.389-1.125l.038.026a14.961,14.961,0,0,1-2.107-1.157l-.516-.321a1.157,1.157,0,0,1-.4-.5.376.376,0,0,1,.02-.355.465.465,0,0,1,.324-.153,2,2,0,0,1,.63.064,17.79,17.79,0,0,1,2.279.816c.368.161.73.336,1.092.513a3.807,3.807,0,0,1,.562.319c.151.133.3.284.441.428l.013.012a.151.151,0,0,1,.012.195c-.309.419-.629.831-.965,1.232A.024.024,0,0,1-624.322,570.523Zm.012-.052c.223-.463.462-.914.711-1.359l.025.206c-.152-.13-.3-.249-.458-.366-.1-.058-.341-.148-.5-.229l-1.089-.491c-.718-.336-1.454-.671-2.169-.987a1.749,1.749,0,0,0-.549-.13c-.194-.013-.295.106-.225.289.121.365.524.512.888.672a18.77,18.77,0,0,1,2.158,1.048l.014.008.024.018A10.767,10.767,0,0,1-624.31,570.47Z" transform="translate(628.732 -566.935)" fill="#2a333a"/>
            </g>
          </g>
        </g>
        <g id="Group_80" data-name="Group 80" transform="translate(0 0.937)">
          <g id="Group_79" data-name="Group 79">
            <path id="Path_51" data-name="Path 51" d="M-624.355,569.241c-.26-.286-1.116-1.057-1.563-1.46,0,0-2.541-1.255-3.166-1.61s-1.078-1.561.965-.8c2.165.811,4.121,1.746,4.174,1.787C-623.763,567.3-624.355,569.241-624.355,569.241Z" transform="translate(629.691 -565.022)" fill="#fbc9a7"/>
            <g id="Group_78" data-name="Group 78">
              <path id="Path_52" data-name="Path 52" d="M-624.434,569.172c-.554-.449-1.123-.88-1.661-1.348l.039.026a22.9,22.9,0,0,1-2.835-1.532,1.917,1.917,0,0,1-.658-.5.918.918,0,0,1-.193-.387.373.373,0,0,1,.2-.422,1.532,1.532,0,0,1,.86-.015,5.583,5.583,0,0,1,.79.224,27.465,27.465,0,0,1,3,1.2c.246.11.483.24.723.364l.18.1.048.028a.189.189,0,0,1,.071.055l.021.031a.34.34,0,0,1,.047.2,1.9,1.9,0,0,1-.066.432,10.887,10.887,0,0,1-.53,1.537.023.023,0,0,1-.03.012Zm0-.064c.094-.514.2-1.03.262-1.536a2.3,2.3,0,0,0,.023-.366c.007-.007-.026-.079.012,0,.014.013-.006-.007-.007-.009.046.046.031.025.029.027l-.04-.018-.181-.079-.737-.313-2.942-1.272a2.8,2.8,0,0,0-1.456-.373c-.221.06-.124.381.025.567a1.472,1.472,0,0,0,.627.44c.976.442,1.979.834,2.909,1.369l.015.01.023.017A14.273,14.273,0,0,1-624.432,569.108Z" transform="translate(629.755 -564.937)" fill="#2a333a"/>
            </g>
          </g>
        </g>
        <path id="Path_53" data-name="Path 53" d="M-625.96,566.182a26,26,0,0,0-3.266-1.834c-.682-.324-.737-1.35.336-1.058a15.672,15.672,0,0,1,2.976.967,16.387,16.387,0,0,1,4.335,5.791c.014.026-1.55,1.642-1.6,1.654-.8.177-2.409-1.141-3.293-1.886-.945-.8-1.842-1.55-1.452-1.974s1.07.221,2.038.739C-625.351,568.867-623.569,568.7-625.96,566.182Z" transform="translate(629.739 -563.238)" fill="#fbc9a7" stroke="#2a333a" stroke-linecap="round" stroke-linejoin="round" stroke-width="2"/>
      </g>
      <g id="Group_82" data-name="Group 82" transform="translate(149.61 155.581)">
        <path id="Path_54" data-name="Path 54" d="M-670.459,551.165a3.177,3.177,0,0,0-.329.083c-.141.041-.286.091-.432.144a8.916,8.916,0,0,0-.868.371,8.942,8.942,0,0,0-.827.461c-.285.175-.442.3-.938.657-1.574,1.063-2.94,1.794-4.292,2.656a22.638,22.638,0,0,0-6.695,5.759,8.072,8.072,0,0,0-1.44,3.553l-.026.235c0,.02-.01.12-.011.074l-.012.155c-.018.256-.021.255-.025.409-.007.241.029.441.01.428.007.007-.249-.242-.393-.233s0,.05.222.015a6.192,6.192,0,0,0,1.77-.638,20.182,20.182,0,0,0,1.962-1.146,44.223,44.223,0,0,0,3.808-2.814l.033-.027a1.443,1.443,0,0,1,2.031.188,1.442,1.442,0,0,1-.069,1.922,39.62,39.62,0,0,1-3.774,3.509,23.869,23.869,0,0,1-2.163,1.564,9.952,9.952,0,0,1-2.763,1.277,4.311,4.311,0,0,1-2.221.025,3.437,3.437,0,0,1-1.324-.709,3.614,3.614,0,0,1-.862-1.108,5.45,5.45,0,0,1-.541-1.962c-.032-.258-.042-.67-.045-.825l0-.155.009-.232.023-.38a12.582,12.582,0,0,1,1.917-5.638,27.1,27.1,0,0,1,7.753-7.511c1.382-.972,2.865-1.9,3.985-2.732.171-.129.647-.528,1.052-.8a13.878,13.878,0,0,1,1.29-.807,13.675,13.675,0,0,1,1.369-.669c.236-.1.476-.2.726-.284a8.911,8.911,0,0,1,.856-.263l1.5-.381a3.05,3.05,0,0,1,3.706,2.2,3.049,3.049,0,0,1-2.2,3.706A3.044,3.044,0,0,1-670.459,551.165Z" transform="translate(690.678 -545.237)" fill="#fff" stroke="#2a333a" stroke-linecap="round" stroke-linejoin="round" stroke-width="2"/>
      </g>
      <g id="Group_84" data-name="Group 84" transform="translate(165.864 168.433)">
        <g id="Group_83" data-name="Group 83">
          <path id="Path_55" data-name="Path 55" d="M-661.2,568.542" transform="translate(661.203 -568.542)" fill="#fbc9a7"/>
        </g>
      </g>
      <g id="Group_94" data-name="Group 94" transform="translate(161.105 165.508)">
        <g id="Group_87" data-name="Group 87" transform="translate(2.263 3.047)">
          <g id="Group_86" data-name="Group 86">
            <path id="Path_56" data-name="Path 56" d="M-664.677,571.98c.179-.213.766-.782,1.074-1.081,0,0,1.776-.958,2.211-1.228s.724-1.138-.709-.539c-1.519.632-2.887,1.349-2.922,1.379-.126.1-.262.232-.4.371Z" transform="translate(665.593 -568.836)" fill="#fbc9a7"/>
            <g id="Group_85" data-name="Group 85">
              <path id="Path_57" data-name="Path 57" d="M-664.81,571.868a9.1,9.1,0,0,1,.951-1.165l.019-.017.019-.012a13.133,13.133,0,0,1,1.822-.927c.31-.138.652-.27.74-.582.05-.155-.027-.24-.189-.226a1.477,1.477,0,0,0-.458.127l-1.819.9-.916.441c-.135.069-.345.154-.418.2-.139.106-.263.211-.387.319l.019-.207C-665.211,571.094-665,571.474-664.81,571.868Zm-.021.052c-.306-.327-.587-.672-.866-1.018a.149.149,0,0,1,.006-.194l.013-.014c.121-.131.243-.26.365-.377a3.447,3.447,0,0,1,.475-.294c.3-.165.608-.319.921-.459a14.423,14.423,0,0,1,1.932-.732,1.73,1.73,0,0,1,.542-.064.408.408,0,0,1,.288.129.331.331,0,0,1,.025.313c-.136.374-.5.528-.764.726a10.921,10.921,0,0,1-1.764,1.043l.037-.029c-.38.338-.778.654-1.177.972A.026.026,0,0,1-664.831,571.92Z" transform="translate(665.73 -568.764)" fill="#2a333a"/>
            </g>
          </g>
        </g>
        <g id="Group_90" data-name="Group 90" transform="translate(2.159 2.039)">
          <g id="Group_89" data-name="Group 89">
            <path id="Path_58" data-name="Path 58" d="M-664.77,570.582c.213-.243.922-.893,1.291-1.234,0,0,2.112-1.072,2.629-1.375s.885-1.313-.814-.656c-1.8.7-3.424,1.5-3.469,1.532-.149.119-.314.263-.483.423Z" transform="translate(665.783 -567.009)" fill="#fbc9a7"/>
            <g id="Group_88" data-name="Group 88">
              <path id="Path_59" data-name="Path 59" d="M-664.9,570.47a10.954,10.954,0,0,1,1.173-1.32l.024-.018.014-.008a18.877,18.877,0,0,1,2.158-1.048c.363-.16.766-.308.888-.672.07-.183-.031-.3-.225-.289a1.749,1.749,0,0,0-.549.13c-.715.317-1.451.651-2.169.987l-1.089.491c-.163.082-.4.171-.5.231-.162.117-.308.236-.459.365l.025-.206C-665.365,569.556-665.126,570.008-664.9,570.47Zm-.022.05c-.336-.4-.655-.814-.965-1.232a.152.152,0,0,1,.013-.2l.012-.013c.14-.145.291-.294.442-.427a3.784,3.784,0,0,1,.561-.319c.362-.176.724-.351,1.092-.513a17.757,17.757,0,0,1,2.279-.816,1.994,1.994,0,0,1,.63-.064.465.465,0,0,1,.324.153.375.375,0,0,1,.02.355,1.16,1.16,0,0,1-.4.5l-.515.322a15.121,15.121,0,0,1-2.107,1.156l.037-.026c-.448.393-.924.753-1.389,1.125A.024.024,0,0,1-664.924,570.521Z" transform="translate(665.919 -566.935)" fill="#2a333a"/>
            </g>
          </g>
        </g>
        <g id="Group_93" data-name="Group 93" transform="translate(2.209 0.937)">
          <g id="Group_92" data-name="Group 92">
            <path id="Path_60" data-name="Path 60" d="M-665.072,569.241c.26-.286,1.115-1.057,1.563-1.46,0,0,2.541-1.255,3.167-1.61s1.078-1.561-.965-.8c-2.167.811-4.122,1.746-4.175,1.787C-665.664,567.3-665.072,569.241-665.072,569.241Z" transform="translate(665.689 -565.022)" fill="#fbc9a7"/>
            <g id="Group_91" data-name="Group 91">
              <path id="Path_61" data-name="Path 61" d="M-665.2,569.108a14.058,14.058,0,0,1,1.436-1.537l.022-.017.016-.01c.931-.535,1.933-.927,2.91-1.369a1.482,1.482,0,0,0,.627-.44c.15-.186.246-.507.025-.567a2.806,2.806,0,0,0-1.456.373l-2.942,1.272-.737.313-.181.079-.04.018s-.019.019.028-.027c0,0-.02.022-.007.009.038-.078.005-.006.012,0a2.409,2.409,0,0,0,.023.367C-665.4,568.078-665.292,568.594-665.2,569.108Zm-.034.055a10.943,10.943,0,0,1-.53-1.537,1.948,1.948,0,0,1-.066-.432.338.338,0,0,1,.046-.2l.022-.031a.214.214,0,0,1,.071-.056l.048-.028.18-.1c.24-.125.477-.255.723-.364a27.47,27.47,0,0,1,3-1.2,5.576,5.576,0,0,1,.79-.224,1.529,1.529,0,0,1,.86.015.373.373,0,0,1,.2.422.917.917,0,0,1-.194.387,1.909,1.909,0,0,1-.658.5,22.894,22.894,0,0,1-2.835,1.532l.039-.026c-.538.468-1.107.9-1.661,1.348a.024.024,0,0,1-.032,0Z" transform="translate(665.828 -564.937)" fill="#2a333a"/>
            </g>
          </g>
        </g>
        <path id="Path_62" data-name="Path 62" d="M-665.452,566.182a26,26,0,0,1,3.266-1.834c.682-.324.735-1.35-.336-1.058a15.6,15.6,0,0,0-2.975.967,16.389,16.389,0,0,0-4.336,5.791c-.012.026,1.551,1.642,1.6,1.654.8.177,2.41-1.141,3.295-1.886.945-.8,1.84-1.55,1.449-1.974s-1.066.221-2.035.739C-666.063,568.867-667.843,568.7-665.452,566.182Z" transform="translate(669.833 -563.238)" fill="#fbc9a7" stroke="#2a333a" stroke-linecap="round" stroke-linejoin="round" stroke-width="2"/>
      </g>
      <path id="Path_63" data-name="Path 63" d="M-641.167,563.742c1.278-14.468,1.3-19.182-14.089-19.182-16.6,0-15.04,5.025-13.772,19.152.947,10.552-3.376,22.275-3.376,22.275,0,5.054,33.009,3.934,33.7.132A56.14,56.14,0,0,1-641.167,563.742Z" transform="translate(832.091 -389.352)" fill="#fff" stroke="#2a333a" stroke-linecap="round" stroke-linejoin="round" stroke-width="2"/>
      <path id="Path_64" data-name="Path 64" d="M-643.69,540.03v-3.222H-649v3.222c0,1.667-3.1,2.157-3.1,2.157a7.364,7.364,0,0,0,5.755,2.464,7.363,7.363,0,0,0,5.754-2.464S-643.69,541.7-643.69,540.03Z" transform="translate(822.984 -385.875)" fill="#fff" stroke="#2a333a" stroke-linecap="round" stroke-linejoin="round" stroke-width="2"/>
      <g id="Group_96" data-name="Group 96" transform="translate(186.627 168.433)">
        <g id="Group_95" data-name="Group 95">
          <path id="Path_65" data-name="Path 65" d="M-623.552,568.542" transform="translate(623.552 -568.542)" fill="#fbc9a7"/>
        </g>
      </g>
      <g id="Group_98" data-name="Group 98" transform="translate(165.864 168.433)">
        <g id="Group_97" data-name="Group 97">
          <path id="Path_66" data-name="Path 66" d="M-661.2,568.542" transform="translate(661.203 -568.542)" fill="#fbc9a7"/>
        </g>
      </g>
      <path id="Path_67" data-name="Path 67" d="M-639.572,503.554l-.013-.008-.01-.006a.178.178,0,0,0-.025-.014.021.021,0,0,0-.01,0l-.039-.022a.03.03,0,0,1-.008,0l-.056-.027a.009.009,0,0,0-.006,0c-.02-.011-.045-.022-.069-.033h0l-.078-.033,0,0-.087-.031h0l-.1-.032h0l-.1-.028h0a1.836,1.836,0,0,0-.229-.04h0c-.038,0-.079-.007-.117-.01h0a1.606,1.606,0,0,0-.25.01h0c-.043.006-.085.013-.128.023h0c-.041.009-.084.02-.125.034l-.006,0a1.273,1.273,0,0,0-.124.049l-.006,0c-.042.019-.083.041-.124.065l-.007,0c-.039.023-.079.05-.118.079l-.009.008a1.428,1.428,0,0,0-.112.093l-.013.013a1.293,1.293,0,0,0-.11.111l-.012.014c-.034.04-.068.084-.1.128,0,.008-.012.014-.017.021-.032.046-.066.1-.1.151,0,.007-.01.014-.015.022-.029.052-.058.107-.086.164-.006.012-.012.022-.019.034-.026.057-.053.122-.079.184-.006.015-.013.027-.019.041-.024.065-.048.134-.072.2-.005.017-.013.033-.017.05-.023.071-.044.148-.066.226,0,.02-.01.036-.014.057-.02.077-.037.158-.055.241-.005.025-.011.049-.016.074-.016.088-.032.183-.047.277,0,.024-.009.046-.012.071-.018.11-.031.227-.044.347l0,.033c-.014.133-.026.272-.034.417,0,0-.26-8.62-.831-8.683-6.459-.725-9.632.456-16.279-4.316,0,0-1.02,3.867-4.011,5.737-.745.467-.294,7.261-.294,7.261-1.151-5.069-3.053-2.8-3.053-2.8a1.806,1.806,0,0,0-.319,1.026,1.808,1.808,0,0,0,1.808,1.808,1.8,1.8,0,0,0,.476-.07c.322,1.867.826,3.706,1.3,5.462,2.242,8.388,5.645,8.66,10.5,8.66s8.079.034,10.5-8.66c.486-1.751.973-3.595,1.3-5.462a1.805,1.805,0,0,0,.475.07,1.808,1.808,0,0,0,1.808-1.808,1.806,1.806,0,0,0-.433-1.176Z" transform="translate(829.797 -366.452)" fill="#fff" stroke="#2a333a" stroke-linecap="round" stroke-linejoin="round" stroke-width="1.462"/>
      <path id="Path_68" data-name="Path 68" d="M-639.746,490.039a16.548,16.548,0,0,0-3.371-9.853c-3.857-6.671-19.161-7.43-20.516.323,0,0-5.806.539-5.755,7.911h0c-1.732,12.827,4.125,17.831,5.967,19.066a22.82,22.82,0,0,1-1.369-3.881c-.47-1.756-.975-3.595-1.3-5.462a1.8,1.8,0,0,1-.476.07,1.809,1.809,0,0,1-1.808-1.808,1.806,1.806,0,0,1,.319-1.026,1.435,1.435,0,0,1,1.074-.5h0l.058.006h0l.056.009,0,0c.018,0,.035.008.055.013h.007l.055.017.006,0c.018.006.035.014.053.021l.008,0,.053.025.01,0a.566.566,0,0,1,.049.028l.014.006.05.031.013.009.05.034a.056.056,0,0,0,.014.011l.047.038a.133.133,0,0,1,.016.013c.016.012.031.027.046.041a.12.12,0,0,1,.018.016c.015.013.03.029.045.044l.021.019.044.046a.207.207,0,0,0,.021.023l.042.05.021.027.043.053c.007.01.014.019.02.029a.637.637,0,0,1,.043.058l.023.031.04.061c.008.014.016.024.023.037s.029.044.042.066.016.025.024.04.025.045.039.068.017.028.024.043.026.047.038.073.017.031.026.048.025.049.037.074l.025.055c.012.026.024.054.037.081s.016.036.026.056.024.058.037.088l.024.059c.012.03.023.061.036.091s.016.043.025.065.023.062.034.094.018.046.026.069.024.067.035.1l.026.073c.012.035.024.073.037.111s.016.047.023.072.024.075.036.113.016.053.024.08.022.079.032.119.017.055.024.083c.012.043.023.086.035.13l.022.083c.015.054.028.11.04.164,0,.019.011.039.016.058.018.077.036.156.054.233,0,0-.451-6.795.294-7.261,2.992-1.871,4.011-5.737,4.011-5.737,6.647,4.772,9.82,3.591,16.279,4.316.57.063.83,8.683.83,8.683.008-.145.021-.283.034-.417h0c0-.05.012-.094.018-.142.009-.081.018-.163.029-.237v0c.007-.051.015-.1.024-.143.011-.068.02-.137.034-.2v0c.009-.045.02-.085.03-.128.012-.061.025-.124.04-.181v-.006c.009-.039.02-.074.032-.112.015-.056.029-.113.046-.165l0-.006c.012-.039.026-.074.039-.112s.031-.092.047-.136l.005-.007c.012-.031.024-.06.037-.09s.036-.088.056-.128l0-.007c.013-.026.027-.05.04-.074.02-.04.04-.081.061-.117a.018.018,0,0,0,.006-.008c.012-.021.026-.039.038-.06s.045-.072.068-.1l.007-.009c.011-.015.022-.028.034-.042a1.193,1.193,0,0,1,.077-.1l.007-.008c.011-.013.022-.023.033-.035s.053-.058.082-.082a.035.035,0,0,1,.009-.009l.026-.023c.03-.025.059-.052.089-.074l.009-.008h0c.008-.007.016-.011.023-.017.032-.022.062-.044.094-.062l.007,0,.006,0a.124.124,0,0,0,.018-.01c.033-.017.066-.035.1-.051l.006,0,.009,0,.011,0a.818.818,0,0,1,.1-.041l.006,0,.011,0,.006,0c.035-.011.072-.021.108-.029h0a.057.057,0,0,0,.016,0h0c.038-.007.075-.014.112-.019h0a1.607,1.607,0,0,1,.25-.01h0c.039,0,.079.005.118.01h0a1.837,1.837,0,0,1,.229.04h0l.1.028h0l.1.032h0l.087.031,0,0,.078.033h0c.024.011.049.022.069.033a.009.009,0,0,1,.005,0l.056.027a.03.03,0,0,0,.008,0l.039.022a.022.022,0,0,1,.01,0,.172.172,0,0,1,.025.014l.01.006.013.008.008,0a1.807,1.807,0,0,1,.433,1.176,1.808,1.808,0,0,1-1.808,1.808,1.806,1.806,0,0,1-.475-.07c-.323,1.867-.81,3.711-1.3,5.462a25.3,25.3,0,0,1-1.35,3.811C-643.436,506.078-638.467,501.168-639.746,490.039Z" transform="translate(830.881 -358.123)" fill="#3f413e" stroke="#2a333a" stroke-linecap="round" stroke-linejoin="round" stroke-width="1.462"/>
      <path id="Path_69" data-name="Path 69" d="M-675.012,964.489c-1.058.938-3.723,1.219-3.723,1.219-13.8,2.113-24.866,2.74-24.866,2.74a1.066,1.066,0,0,0,.358,1.8s3.3,1.857,14.348-.155c7.621-1.389,13.786-2.128,13.884-3.718C-674.977,965.819-674.984,965.137-675.012,964.489Z" transform="translate(846.251 -577.712)" fill="#101727"/>
      <path id="Path_70" data-name="Path 70" d="M-674.965,953.225a34.461,34.461,0,0,1-1.288-6.35l-7.639-.7s.344,6.05-8.727,8.9c-5.611,1.761-10.071,2.425-10.693,5.16,0,0-1.448,3.862,23.384-1.076a8.75,8.75,0,0,0,5.206-2.884A7.736,7.736,0,0,0-674.965,953.225Z" transform="translate(845.963 -569.498)" fill="#101727"/>
      <path id="Path_71" data-name="Path 71" d="M-630.348,964.489c1.057.938,3.724,1.219,3.724,1.219,13.8,2.113,24.866,2.74,24.866,2.74a1.066,1.066,0,0,1-.359,1.8s-3.3,1.857-14.346-.155c-7.621-1.389-13.786-2.128-13.885-3.718C-630.383,965.819-630.373,965.137-630.348,964.489Z" transform="translate(813.237 -577.712)" fill="#101727"/>
      <path id="Path_72" data-name="Path 72" d="M-630.133,953.225a34.472,34.472,0,0,0,1.289-6.35l7.639-.7s-.344,6.05,8.728,8.9c5.61,1.761,10.069,2.425,10.692,5.16,0,0,1.448,3.862-23.381-1.076a8.758,8.758,0,0,1-5.209-2.884A7.756,7.756,0,0,1-630.133,953.225Z" transform="translate(813.264 -569.498)" fill="#101727"/>
      <path id="Path_73" data-name="Path 73" d="M-637.293,780.823h-42.178s.746,14.744,1.5,23.2l.943,36.43.685,34.657,12.334-.245-.686-34.693-.925-35.8a43.7,43.7,0,0,1,7.241-1.238,43.675,43.675,0,0,1,7.238,1.238l-.927,35.84-.684,34.655,12.334.243.683-34.617.943-36.446C-638.041,795.593-637.293,780.823-637.293,780.823Z" transform="translate(835.261 -495.328)" fill="#4676c0" stroke="#2a333a" stroke-linecap="round" stroke-linejoin="round" stroke-width="2"/>
      <path id="Path_74" data-name="Path 74" d="M-591.511,693.761c-4.367,0-8.185-5.8-13.551-14.533-6.01-9.786-9.5-15.529-9.5-15.529a5.14,5.14,0,0,1,1.723-7.062,5.142,5.142,0,0,1,7.062,1.722s.552.909,1.591,2.611a5.143,5.143,0,0,1,3.223-5.637,5.145,5.145,0,0,1,6.645,2.947c.109.281,2.686,6.975,4.991,13.951,4.068,12.312,5.432,18.385.375,20.886A5.711,5.711,0,0,1-591.511,693.761Z" transform="translate(806.482 -438.885)" fill="#fff" stroke="#2a333a" stroke-linecap="round" stroke-linejoin="round" stroke-width="2"/>
      <path id="Path_75" data-name="Path 75" d="M-638.766,716.031s-1.218-36.93-.784-44.787,13.353-25.278-21.154-25.278-21.456,17.23-21.023,25.082-.85,44.983-.85,44.983c-2.169.769-1.885,4.3-1.885,4.3.74,9.431,46.841,9.431,47.582,0C-636.881,720.332-636.6,716.8-638.766,716.031Z" transform="translate(837.518 -434.838)" fill="#fff" stroke="#2a333a" stroke-linecap="round" stroke-linejoin="round" stroke-width="2"/>
      <path id="Path_76" data-name="Path 76" d="M-640.252,633.627c.737-3.238,3.935-21.154-16.2-21.154s-18.658,16.316-18.619,18.627c.041,2.471,1.783,3.591,4.444,5.193,3.576,2.151.208-6.223,13.311-6.223s9.924,8.985,13.069,7.275C-642.089,636.171-640.749,635.806-640.252,633.627Z" transform="translate(833.305 -419.815)" fill="#763078" stroke="#2a333a" stroke-linecap="round" stroke-linejoin="round" stroke-width="2"/>
      <g id="Group_99" data-name="Group 99" transform="translate(156.86 221.421)">
        <path id="Path_77" data-name="Path 77" d="M-670.187,664.631a28.342,28.342,0,0,0,.3,4.6,47.923,47.923,0,0,0,.931,4.735c.39,1.586.85,3.17,1.364,4.742.509,1.557,1.092,3.167,1.69,4.621l-4.58,2.268c-.892-1.637-1.649-3.19-2.392-4.827s-1.418-3.276-2.037-4.97-1.175-3.431-1.633-5.228a35.757,35.757,0,0,1-.989-5.6Z" transform="translate(677.531 -664.631)" fill="#fff" stroke="#2a333a" stroke-linecap="round" stroke-linejoin="round" stroke-width="2"/>
      </g>
      <g id="Group_100" data-name="Group 100" transform="translate(184.596 221.507)">
        <path id="Path_78" data-name="Path 78" d="M-617.2,665.083a52.522,52.522,0,0,1-.835,5.539c-.366,1.8-.8,3.569-1.274,5.312s-1,3.461-1.56,5.163-1.148,3.366-1.817,5.088l-4.553-1.509c.406-1.6.783-3.306,1.115-4.97s.627-3.353.872-5.028.442-3.346.57-5a45.081,45.081,0,0,0,.136-4.889Z" transform="translate(627.235 -664.788)" fill="#fff" stroke="#2a333a" stroke-linecap="round" stroke-linejoin="round" stroke-width="2"/>
      </g>
      <path id="Path_79" data-name="Path 79" d="M-667.082,640.53l-.148.063c-.036.013-.135.058-.089.033.022-.015.076-.063.042-.048a.371.371,0,0,0-.106.015.855.855,0,0,0-.292.152,3.2,3.2,0,0,0-.78.913,11.7,11.7,0,0,0-1.3,3.518,29.135,29.135,0,0,0-.4,8.964l-7.013,1.386a38.359,38.359,0,0,1-1.054-5.6,34.177,34.177,0,0,1-.181-5.834,21.128,21.128,0,0,1,1.3-6.358,13.438,13.438,0,0,1,1.919-3.424,11.4,11.4,0,0,1,1.547-1.627,10.458,10.458,0,0,1,.939-.722c.144-.1.386-.253.594-.376l.33-.2Z" transform="translate(834.805 -428.295)" fill="#763078" stroke="#2a333a" stroke-linecap="round" stroke-linejoin="round" stroke-width="2"/>
      <g id="Group_101" data-name="Group 101" transform="translate(184.703 203.091)">
        <path id="Path_80" data-name="Path 80" d="M-622.086,631.392a12.74,12.74,0,0,1,1.158.77,9.207,9.207,0,0,1,1.027.958,9.833,9.833,0,0,1,1.362,1.925,13.634,13.634,0,0,1,1.264,3.41,26.1,26.1,0,0,1,.6,5.8,50.659,50.659,0,0,1-1.154,10.486l-6.658-.854a42.99,42.99,0,0,0-.656-8.905,16.722,16.722,0,0,0-1.106-3.742,3.255,3.255,0,0,0-.67-1.033c-.087-.075-.146-.065-.121.008a.494.494,0,0,0,.109.165c-.055.013.511.336.118.148Z" transform="translate(627.04 -631.392)" fill="#763078" stroke="#2a333a" stroke-linecap="round" stroke-linejoin="round" stroke-width="2"/>
      </g>
      <g id="Group_102" data-name="Group 102" transform="translate(182.856 244.575)">
        <path id="Path_81" data-name="Path 81" d="M-630.135,706.619a4.376,4.376,0,0,0,1.75,1.124c6.8,2.859,11.862,4.438,11.862,4.438a.618.618,0,0,1-.421.939s-1.94.609-7.341-1.856c-3.727-1.7-6.256-2.735-6.1-3.616C-630.329,707.341-630.234,706.97-630.135,706.619Z" transform="translate(630.391 -706.619)" fill="#fbc9a7" stroke="#2a333a" stroke-linecap="round" stroke-linejoin="round" stroke-width="2"/>
      </g>
      <g id="Group_103" data-name="Group 103" transform="translate(183.111 239.603)">
        <path id="Path_82" data-name="Path 82" d="M-629.4,700.939a9.771,9.771,0,0,0,1.132-3.336l5.1,1.472s-1.3,2.567,2.047,4.922c2.554,1.8,4.848,2.569,4.809,4.14,0,0,.77,2.419-11.32-3.344a4.562,4.562,0,0,1-2.292-2.22A4.6,4.6,0,0,1-629.4,700.939Z" transform="translate(629.928 -697.603)" fill="#fff" stroke="#2a333a" stroke-linecap="round" stroke-linejoin="round" stroke-width="2"/>
      </g>
      <g id="Group_104" data-name="Group 104" transform="translate(157.447 243.364)">
        <path id="Path_83" data-name="Path 83" d="M-663.676,704.422a4.373,4.373,0,0,1-1.585,1.351c-6.359,3.744-11.16,5.987-11.16,5.987a.618.618,0,0,0,.544.873s2,.341,7.025-2.824c3.466-2.183,5.835-3.547,5.559-4.4C-663.39,705.112-663.533,704.758-663.676,704.422Z" transform="translate(676.468 -704.422)" fill="#fbc9a7" stroke="#2a333a" stroke-linecap="round" stroke-linejoin="round" stroke-width="2"/>
      </g>
      <g id="Group_105" data-name="Group 105" transform="translate(157.473 238.66)">
        <path id="Path_84" data-name="Path 84" d="M-664.395,699.045a9.8,9.8,0,0,1-1.569-3.153l-4.857,2.143s1.637,2.368-1.369,5.152c-2.29,2.123-4.461,3.195-4.21,4.747,0,0-.439,2.5,10.771-4.832a4.575,4.575,0,0,0,1.975-2.506A4.648,4.648,0,0,0-664.395,699.045Z" transform="translate(676.42 -695.892)" fill="#fff" stroke="#2a333a" stroke-linecap="round" stroke-linejoin="round" stroke-width="2"/>
      </g>
      <path id="Path_85" data-name="Path 85" d="M-613.04,636.963c-.383-1.531,1.54-4.963,3.86-4.963,6.066,0,11.214,8.078,13.557,13.659a5.64,5.64,0,0,0-2.6.787,7.691,7.691,0,0,0-1.807,2.193c-2.549.754-5.786-1.7-7.5-3.4C-609.731,643.029-611.937,641.375-613.04,636.963Z" transform="translate(805.485 -428.573)" fill="#fff" stroke="#2a333a" stroke-linecap="round" stroke-linejoin="round" stroke-width="2"/>
      <path id="Path_86" data-name="Path 86" d="M-643.775,637.063V631l-6.094-.523-6.091.523v6.066c0,2.621-3.837,3.719-3.837,3.719,3.448,4.29,15.662,4.752,19.11.461C-640.687,641.243-643.775,639.684-643.775,637.063Z" transform="translate(826.437 -427.889)" fill="#fff" stroke="#2a333a" stroke-linecap="round" stroke-linejoin="round" stroke-width="2"/>
      <path id="Path_87" data-name="Path 87" d="M-640.362,577.284c-.026,0-.05.007-.078.008.657-10.591-2.918-20.2-17.741-20.466-14.824.268-18.4,9.875-17.743,20.466-.026,0-.051-.008-.078-.008a2.626,2.626,0,0,0-2.627,2.627A2.627,2.627,0,0,0-676,582.539a2.651,2.651,0,0,0,.691-.1c.468,2.712,1.2,5.383,1.882,7.934,3.256,12.182,8.2,12.579,15.249,12.579s11.733.048,15.247-12.579a80.471,80.471,0,0,0,1.882-7.934,2.646,2.646,0,0,0,.69.1,2.629,2.629,0,0,0,2.629-2.628A2.628,2.628,0,0,0-640.362,577.284Z" transform="translate(834.884 -394.854)" fill="#fff" stroke="#2a333a" stroke-linecap="round" stroke-linejoin="round" stroke-width="2"/>
      <path id="Path_88" data-name="Path 88" d="M-669.2,549.07s-18.128-4.147-10.217,23.709c0,0,2.762-3.3,4.434,4.063,0,0-.379-6.667.692-7.365a14.278,14.278,0,0,0,6.513-11.18c7.949,10.614,19.913-.478,22.691,5.932.333.764,1.205,12.613,1.205,12.613.436-6.752,4.268-4.28,4.268-4.28C-635.238,560.165-644.147,533.307-669.2,549.07Z" transform="translate(836.133 -389.211)" fill="#5d5f5e" stroke="#2a333a" stroke-linecap="round" stroke-linejoin="round" stroke-width="2"/>
      <path id="Path_89" data-name="Path 89" d="M-658.111,570.277" transform="translate(825.68 -400.887)" fill="#fbc9a7" stroke="#2a333a" stroke-linecap="round" stroke-linejoin="round" stroke-width="2"/>
      <path id="Path_90" data-name="Path 90" d="M-606.071,576.591c.183,3.576-1.559,4.92-2.614,5.4a4.4,4.4,0,0,1-1.845.383c-3.4,0-7.613-3.279-10.784-6.315a2.8,2.8,0,0,1-.087-3.952,2.8,2.8,0,0,1,3.952-.088,29.448,29.448,0,0,0,5.808,4.393" transform="translate(809.562 -401.323)" fill="#fff" stroke="#2a333a" stroke-linecap="round" stroke-linejoin="round" stroke-width="2"/>
      <path id="Path_91" data-name="Path 91" d="M-686.537,576.3l.071.128c.071.127.128.308.19.389l.165.248a1.758,1.758,0,0,0,.324.4c.1.083.176.116.213.077s0-.126-.058-.19c-.134-.14-.134-.142.108-.223a9.806,9.806,0,0,0,.958-.416c.77-.383,1.644-.915,2.568-1.433a24.566,24.566,0,0,1,2.941-1.51l.181-.072a1.93,1.93,0,0,1,2.51,1.07,1.947,1.947,0,0,1-.085,1.622,11.7,11.7,0,0,1-2.371,3.062,12.356,12.356,0,0,1-3.356,2.3,8.6,8.6,0,0,1-2.349.724,5.241,5.241,0,0,1-3.325-.534,4.186,4.186,0,0,1-1.428-1.263,4.581,4.581,0,0,1-.687-1.419,5.17,5.17,0,0,1-.2-1.274c-.008-.193-.009-.406,0-.613a3.177,3.177,0,0,1,.072-.481" transform="translate(840.063 -402.359)" fill="#fff" stroke="#2a333a" stroke-linecap="round" stroke-linejoin="round" stroke-width="2"/>
      <path id="Path_92" data-name="Path 92" d="M-897.25,756.306s.75,8.208-2.409,14.017a19.456,19.456,0,0,0,0,18.025c2.731,4.885,5.448,12.645.136,18.249s7.2,16.395-.349,26.262c0,0,30.385-6,32.4-19.794,1.268-8.686-.289-8.48,3.016-12.072s6.648-14.377,4-19.073-1.419-7.322.6-12.207,1.052-11.566-1.08-15.444S-893.978,753.579-897.25,756.306Z" transform="translate(935.02 -482.609)" fill="#fff" stroke="#2a333a" stroke-linecap="round" stroke-linejoin="round" stroke-width="2"/>
      <path id="Path_93" data-name="Path 93" d="M-873.322,965.478a3.929,3.929,0,0,1-1.764.614c-6.542,1.066-11.295,1.384-11.295,1.384a.556.556,0,0,0,.172.909s1.566.937,6.8-.08c3.612-.7,6.04-1.073,6.085-1.877C-873.3,966.15-873.309,965.8-873.322,965.478Z" transform="translate(928.15 -578.155)" fill="#ccb5a9" stroke="#2a333a" stroke-linecap="round" stroke-linejoin="round" stroke-width="2"/>
      <path id="Path_94" data-name="Path 94" d="M-873.322,960.707a9.233,9.233,0,0,0-1.047-2.431l-3.381.481s-.025,1.529-3.446,2.885c-2.607,1.03-4.776,1.223-5.07,2.6,0,0-1.181,1.95,10.591-.544a4.1,4.1,0,0,0,2.468-1.456A4.148,4.148,0,0,0-873.322,960.707Z" transform="translate(928.034 -574.925)" fill="#fff" stroke="#2a333a" stroke-linecap="round" stroke-linejoin="round" stroke-width="2"/>
      <path id="Path_95" data-name="Path 95" d="M-856.152,965.457a3.929,3.929,0,0,0,1.765.614c6.542,1.068,11.293,1.384,11.293,1.384a.555.555,0,0,1-.172.909s-1.566.936-6.8-.078c-3.613-.7-6.042-1.075-6.086-1.877C-856.169,966.128-856.166,965.785-856.152,965.457Z" transform="translate(914.517 -578.146)" fill="#ccb5a9" stroke="#2a333a" stroke-linecap="round" stroke-linejoin="round" stroke-width="2"/>
      <path id="Path_96" data-name="Path 96" d="M-856.05,960.556a9.177,9.177,0,0,1,1.2-2.591l2.733.172s.52,2,3.941,3.353c2.609,1.032,4.775,1.225,5.07,2.606,0,0,1.182,1.95-10.591-.543a4.09,4.09,0,0,1-2.467-1.458A4.1,4.1,0,0,1-856.05,960.556Z" transform="translate(914.53 -574.786)" fill="#fff" stroke="#2a333a" stroke-linecap="round" stroke-linejoin="round" stroke-width="2"/>
      <path id="Path_97" data-name="Path 97" d="M-868.98,909l.2,26.181a2.156,2.156,0,0,1-2.14,2.172,2.163,2.163,0,0,1-2.166-1.984l-2.087-26.1a3.1,3.1,0,0,1,2.844-3.34,3.1,3.1,0,0,1,3.34,2.844C-868.985,908.847-868.981,908.927-868.98,909Z" transform="translate(923.049 -551.441)" fill="#fff" stroke="#2a333a" stroke-linecap="round" stroke-linejoin="round" stroke-width="2"/>
      <path id="Path_98" data-name="Path 98" d="M-848.288,909.1l-2.412,26.084a2.159,2.159,0,0,1-2.347,1.95A2.167,2.167,0,0,1-855,934.978l.121-26.2a3.3,3.3,0,0,1,3.32-3.289,3.306,3.306,0,0,1,3.29,3.321C-848.274,908.908-848.279,909.008-848.288,909.1Z" transform="translate(913.997 -551.249)" fill="#fff" stroke="#2a333a" stroke-linecap="round" stroke-linejoin="round" stroke-width="2"/>
      <path id="Path_99" data-name="Path 99" d="M-849.941,813.767a5.809,5.809,0,0,1,.937.055,6.885,6.885,0,0,1,.823.16,6.712,6.712,0,0,1,1.607.634,5.942,5.942,0,0,1,1.44,1.125,5.719,5.719,0,0,1,.574.721l.125.191.007.011-.066-.1.01.015.02.03c.007.01.049.07,0,0-.155-.195-.171-.175-.188-.195a1.382,1.382,0,0,0,.4.191,7.315,7.315,0,0,0,.864.253,17.717,17.717,0,0,0,2.039.338,29.347,29.347,0,0,0,8.579-.281c.329-.071.645-.156.933-.249.145-.047.281-.1.4-.15s.2-.088.4-.191a15.116,15.116,0,0,0,1.779-1.07,16.727,16.727,0,0,0,3.119-2.832,20.011,20.011,0,0,0,2.432-3.556,20.37,20.37,0,0,0,1.67-3.965l.021-.075a1.16,1.16,0,0,1,1.434-.794,1.163,1.163,0,0,1,.817,1.341,21.946,21.946,0,0,1-1.523,4.687,22.941,22.941,0,0,1-2.493,4.243,19.967,19.967,0,0,1-3.469,3.614,18.5,18.5,0,0,1-2.085,1.458,6.917,6.917,0,0,1-.622.343c-.227.11-.448.2-.665.288a12.854,12.854,0,0,1-1.278.416,27.172,27.172,0,0,1-4.907.787,36,36,0,0,1-4.893.052,21.8,21.8,0,0,1-2.536-.291,11.521,11.521,0,0,1-1.37-.33,5.394,5.394,0,0,1-1.674-.812,3.271,3.271,0,0,1-.61-.587l-.085-.11-.113-.16-.036-.048a1.385,1.385,0,0,0-.156-.173,1.544,1.544,0,0,0-.393-.266,2.289,2.289,0,0,0-.548-.178,2.5,2.5,0,0,0-.313-.045,1.469,1.469,0,0,0-.216,0,2.248,2.248,0,0,1-2.344-2.15A2.25,2.25,0,0,1-849.941,813.767Z" transform="translate(912.692 -505.721)" fill="#fbc9a7" stroke="#2a333a" stroke-linecap="round" stroke-linejoin="round" stroke-width="2"/>
      <path id="Path_100" data-name="Path 100" d="M-877.462,826.21a1,1,0,0,0-.19,0,2.392,2.392,0,0,0-.288.037,2.383,2.383,0,0,0-.52.151,1.54,1.54,0,0,0-.669.524,16.965,16.965,0,0,0-1.539,3.384,39.3,39.3,0,0,0-1.8,7.845q-.129,1.008-.212,2.023l-.189,2.109-.379,4.22c-.248,2.812-.5,5.624-.786,8.436a1.162,1.162,0,0,1-1.271,1.04,1.165,1.165,0,0,1-1.045-1.158c.006-2.826.039-5.65.079-8.473l.055-4.236.028-2.12c.019-.732.056-1.466.108-2.2a43.174,43.174,0,0,1,1.51-8.727,20,20,0,0,1,1.755-4.394,5.9,5.9,0,0,1,2.449-2.251,6.91,6.91,0,0,1,1.48-.529,7.175,7.175,0,0,1,.756-.133,5.74,5.74,0,0,1,.866-.047,2.25,2.25,0,0,1,2.151,2.345A2.248,2.248,0,0,1-877.462,826.21Z" transform="translate(928.059 -513.67)" fill="#fbc9a7" stroke="#2a333a" stroke-linecap="round" stroke-linejoin="round" stroke-width="2"/>
      <path id="Path_101" data-name="Path 101" d="M-882.2,891.326c-.687,2.865-1,6.756-1.807,8.486h27.858c-.87-1.72-2.057-3.464-2.594-9.27a46.8,46.8,0,0,1,.4-11.079h-23.935S-881.515,888.461-882.2,891.326Z" transform="translate(927.007 -539.574)" fill="#fff" stroke="#2a333a" stroke-linecap="round" stroke-linejoin="round" stroke-width="2"/>
      <path id="Path_102" data-name="Path 102" d="M-858.474,837.2c.938-13,.953-17.232-10.328-17.232-12.172,0-11.026,4.512-10.1,17.205a35.673,35.673,0,0,1-2.476,16.267c0,4.538,24.2,3.531,24.708.116C-856.667,853.558-859.3,848.645-858.474,837.2Z" transform="translate(925.826 -512.888)" fill="#f8c246" stroke="#2a333a" stroke-linecap="round" stroke-linejoin="round" stroke-width="2"/>
      <path id="Path_103" data-name="Path 103" d="M-860.627,815.9v-2.894H-865.4V815.9c0,1.5-2.783,1.937-2.783,1.937a6.608,6.608,0,0,0,5.169,2.213,6.61,6.61,0,0,0,5.17-2.213S-860.627,817.4-860.627,815.9Z" transform="translate(919.908 -509.764)" fill="#fbc9a7" stroke="#2a333a" stroke-linecap="round" stroke-linejoin="round" stroke-width="2"/>
      <path id="Path_104" data-name="Path 104" d="M-860.05,772.727s.147-9.285-.572-9.178c-11.448,1.679-16.583.459-21.1-7.288,0,0-1.321,7.24-5.11,9.609-.945.591-.343,6.857-.343,6.857-1.459-6.423-3.869-3.544-3.869-3.544h0a2.293,2.293,0,0,0-.4,1.3,2.291,2.291,0,0,0,2.291,2.291,2.267,2.267,0,0,0,.6-.09,44.257,44.257,0,0,0,1.642,6.92c3.246,9.384,8.951,10.972,13.3,10.972s10.645-2.849,13.3-10.972a49.429,49.429,0,0,0,1.641-6.92,2.268,2.268,0,0,0,.6.09,2.29,2.29,0,0,0,2.291-2.291,2.281,2.281,0,0,0-.551-1.488C-856.34,768.987-859.671,766.849-860.05,772.727Z" transform="translate(930.344 -484.311)" fill="#fff" stroke="#2a333a" stroke-linecap="round" stroke-linejoin="round" stroke-width="2"/>
      <path id="Path_105" data-name="Path 105" d="M-860.5,739.386c-4.888-8.452-24.274-9.413-25.989.409,0,0-11.521,1.068-5.6,18.836,0,0,2.409-2.879,3.869,3.544,0,0-.6-6.266.342-6.857,3.789-2.369,5.11-9.609,5.11-9.609,4.516,7.747,9.651,8.967,21.1,7.288.719-.107.572,9.178.572,9.178.381-5.888,3.724-3.734,3.724-3.734C-853.56,747.629-860.5,739.386-860.5,739.386Z" transform="translate(931.391 -473.759)" fill="#fff" stroke="#2a333a" stroke-linecap="round" stroke-linejoin="round" stroke-width="2"/>
      <path id="Path_106" data-name="Path 106" d="M-800.288,811.1" transform="translate(889.454 -508.909)" fill="#fbc9a7" stroke="#2a333a" stroke-linecap="round" stroke-linejoin="round" stroke-width="2"/>
      <path id="Path_107" data-name="Path 107" d="M-800.9,810.067" transform="translate(889.728 -508.446)" fill="#fbc9a7" stroke="#2a333a" stroke-linecap="round" stroke-linejoin="round" stroke-width="2"/>
      <path id="Path_108" data-name="Path 108" d="M-791.036,590.793s.752,8.208-2.409,14.017a19.462,19.462,0,0,0,0,18.024c2.73,4.887,5.449,12.646.138,18.25s7.2,16.395-.351,26.26c0,0,30.388-6,32.4-19.794,1.268-8.684-.288-8.477,3.017-12.07s6.648-14.376,4-19.072-1.419-7.323.6-12.209,1.05-11.564-1.08-15.443S-787.764,588.066-791.036,590.793Z" transform="translate(887.377 -408.368)" fill="#444341"/>
      <path id="Path_109" data-name="Path 109" d="M-782.867,673.488c-1.947,4.8-3.747,9.837-5.329,14.841a121.778,121.778,0,0,0-3.858,15.18c-.223,1.269-.407,2.536-.545,3.794l-.384,3.977-.765,8.019-1.531,16.036a2.046,2.046,0,0,1-2.231,1.842,2.052,2.052,0,0,1-1.851-2.1l.524-16.1.262-8.051.137-4.056c.066-1.418.182-2.818.335-4.208a128.274,128.274,0,0,1,3.053-16.247c1.328-5.328,2.819-10.518,4.581-15.789a4.065,4.065,0,0,1,5.144-2.568,4.065,4.065,0,0,1,2.566,5.145c-.025.077-.053.153-.083.228Z" transform="translate(889.039 -444.651)" fill="#fff" stroke="#2a333a" stroke-linecap="round" stroke-linejoin="round" stroke-width="2"/>
      <path id="Path_110" data-name="Path 110" d="M-779.16,946.478a12.34,12.34,0,0,0,1.588,5.481c1.5,2.378-.529,4.939-2.559,5.379s-11.305,5.829-15.456,5.3-6.467-2.032,2.188-7.423,12.739-3.647,12.739-3.647Z" transform="translate(889.008 -569.633)" fill="#763078" stroke="#2a333a" stroke-linecap="round" stroke-linejoin="round" stroke-width="2"/>
      <path id="Path_111" data-name="Path 111" d="M-780.96,941.091c-.177.265,1.15,6.182-3.354,7.947s-9.361,5.3-8.921,7.33,6.8.355,11.482-3.178a12.11,12.11,0,0,0,5.3-10.4C-776.368,939.678-780.96,941.091-780.96,941.091Z" transform="translate(886.303 -567.073)" fill="#fff" stroke="#2a333a" stroke-linecap="round" stroke-linejoin="round" stroke-width="2"/>
      <path id="Path_112" data-name="Path 112" d="M-746.417,946.478a12.333,12.333,0,0,1-1.589,5.481c-1.5,2.378.531,4.939,2.562,5.379s11.3,5.829,15.454,5.3,6.469-2.032-2.189-7.423-12.739-3.647-12.739-3.647Z" transform="translate(866.235 -569.633)" fill="#763078" stroke="#2a333a" stroke-linecap="round" stroke-linejoin="round" stroke-width="2"/>
      <path id="Path_113" data-name="Path 113" d="M-740.2,941.091c.177.265-1.148,6.182,3.356,7.947s9.36,5.3,8.919,7.33-6.8.355-11.48-3.178a12.111,12.111,0,0,1-5.3-10.4C-744.789,939.678-740.2,941.091-740.2,941.091Z" transform="translate(864.522 -567.073)" fill="#fff" stroke="#2a333a" stroke-linecap="round" stroke-linejoin="round" stroke-width="2"/>
      <path id="Path_114" data-name="Path 114" d="M-750.813,785.852H-781.8s.377,7.445.855,14.5l2.31,35.357.308,4.7.265,4.659.514,9.413,1.028,18.828,5.721-.026.857-18.836.428-9.418.206-4.757.164-4.711,1-28.711a8.2,8.2,0,0,1,1.84-.286,8.443,8.443,0,0,1,1.8.273l1,28.724.164,4.711.206,4.757.429,9.418.856,18.836,5.722.026,1.028-18.828.515-9.413.264-4.659.308-4.7,1.971-30.181C-751.406,797.558-750.813,785.852-750.813,785.852Z" transform="translate(881.163 -497.584)" fill="#fff" stroke="#2a333a" stroke-linecap="round" stroke-linejoin="round" stroke-width="2"/>
      <path id="Path_115" data-name="Path 115" d="M-755.007,708.43c-1.2-12.772-.4-23.884,0-31.181s5.025-16.638-13.43-16.638-14.363,8.155-13.959,15.45.162,18.373-.386,31.628a82.642,82.642,0,0,1-3.632,21.985c.687,8.756,35.325,8.756,36.011,0C-753.8,721.2-753.786,721.373-755.007,708.43Z" transform="translate(883.231 -441.407)" fill="#eb3d7a" stroke="#2a333a" stroke-linecap="round" stroke-linejoin="round" stroke-width="2"/>
      <path id="Path_116" data-name="Path 116" d="M-755.666,652.342v-5.634l-3.322-.486-3.322.486v5.634c0,2.435-2.551,3.148-2.551,3.148,3.2,3.985,5.873,3.6,5.873,3.6s2.672.387,5.875-3.6C-753.113,655.49-755.666,654.776-755.666,652.342Z" transform="translate(873.563 -434.953)" fill="#fbc9a7" stroke="#2a333a" stroke-linecap="round" stroke-linejoin="round" stroke-width="2"/>
      <path id="Path_117" data-name="Path 117" d="M-753.835,607.213s.146-9.285-.574-9.18c-11.448,1.68-16.581.46-21.1-7.289,0,0-1.321,7.24-5.11,9.611-.946.591-.345,6.857-.345,6.857-1.459-6.423-3.867-3.544-3.867-3.544h0a2.275,2.275,0,0,0-.4,1.3,2.291,2.291,0,0,0,2.292,2.291,2.315,2.315,0,0,0,.6-.09,44.517,44.517,0,0,0,1.642,6.92c3.248,9.383,8.954,10.97,13.3,10.97s10.646-2.847,13.3-10.97a49.73,49.73,0,0,0,1.641-6.92,2.318,2.318,0,0,0,.6.09,2.292,2.292,0,0,0,2.293-2.291,2.292,2.292,0,0,0-.551-1.487C-750.124,603.472-753.455,601.333-753.835,607.213Z" transform="translate(882.701 -410.068)" fill="#fff" stroke="#2a333a" stroke-linecap="round" stroke-linejoin="round" stroke-width="2"/>
      <path id="Path_118" data-name="Path 118" d="M-754.288,573.873c-4.885-8.451-24.274-9.413-25.989.41,0,0-11.519,1.066-5.6,18.836,0,0,2.408-2.879,3.867,3.544,0,0-.6-6.267.345-6.857,3.789-2.371,5.11-9.611,5.11-9.611,4.516,7.749,9.649,8.969,21.1,7.289.72-.1.574,9.18.574,9.18.38-5.889,3.722-3.734,3.722-3.734C-747.344,582.116-754.288,573.873-754.288,573.873Z" transform="translate(883.748 -399.518)" fill="#3f413e"/>
      <g id="Group_106" data-name="Group 106" transform="translate(90.724 292.726)">
        <path id="Path_119" data-name="Path 119" d="M-795.215,793.936c-.045.473-.031,1.884-.025,2.623,0,0,.97,3.334,1.165,4.194s-.516,2.267-1.514-.213c-1.062-2.627-1.834-5.17-1.841-5.253-.025-.281-.035-.6-.032-.94Z" transform="translate(797.462 -793.936)" fill="#fbc9a7" stroke="#2a333a" stroke-linecap="round" stroke-linejoin="round" stroke-width="2"/>
      </g>
      <g id="Group_108" data-name="Group 108" transform="translate(90.672 292.718)">
        <g id="Group_107" data-name="Group 107">
          <path id="Path_120" data-name="Path 120" d="M-795.251,793.931c-.022.872.007,1.747.019,2.621l0-.014c.349,1.122.648,2.257.946,3.393.072.286.147.569.206.859a1.527,1.527,0,0,1-.114.877.477.477,0,0,1-.341.29.557.557,0,0,1-.414-.181,2.726,2.726,0,0,1-.5-.734c-.5-1.068-.9-2.173-1.292-3.281l-.561-1.672a6.329,6.329,0,0,1-.235-.862c-.019-.293-.022-.591-.015-.886l0-.041.04-.007,2.262-.371Zm-.014.008-2.23.451.041-.049c0,.293.012.582.039.874.047.262.166.554.245.83l.554,1.669c.395,1.1.78,2.216,1.239,3.289a2.648,2.648,0,0,0,.472.724.5.5,0,0,0,.364.171.428.428,0,0,0,.3-.254,2.336,2.336,0,0,0-.123-1.694c-.318-1.13-.666-2.249-.971-3.384l0-.008v0C-795.327,795.681-795.346,794.808-795.265,793.939Z" transform="translate(797.557 -793.921)" fill="#fbc9a7" stroke="#2a333a" stroke-linecap="round" stroke-linejoin="round" stroke-width="2"/>
        </g>
      </g>
      <g id="Group_109" data-name="Group 109" transform="translate(89.632 293.416)">
        <path id="Path_121" data-name="Path 121" d="M-796.822,795.188c-.036.554.021,2.21.05,3.077,0,0,1.237,3.882,1.494,4.886s-.538,2.672-1.784-.2c-1.324-3.052-2.306-6.01-2.316-6.107-.036-.328-.058-.7-.064-1.1Z" transform="translate(799.443 -795.188)" fill="#fbc9a7" stroke="#2a333a" stroke-linecap="round" stroke-linejoin="round" stroke-width="2"/>
      </g>
      <g id="Group_111" data-name="Group 111" transform="translate(89.582 293.408)">
        <g id="Group_110" data-name="Group 110">
          <path id="Path_122" data-name="Path 122" d="M-796.856,795.181c0,1.025.057,2.05.094,3.075l0-.014c.439,1.306.829,2.628,1.214,3.951.094.333.193.662.271,1a1.774,1.774,0,0,1-.107,1.028.559.559,0,0,1-.388.348.648.648,0,0,1-.487-.2,3.22,3.22,0,0,1-.607-.845c-.617-1.24-1.116-2.525-1.61-3.812q-.367-.966-.708-1.944a7.561,7.561,0,0,1-.3-1c-.031-.343-.044-.692-.046-1.037v-.041l.04-.008,2.637-.508Zm-.014.008-2.6.59.04-.05c.01.345.03.684.069,1.027.063.311.21.646.31.968q.337.976.7,1.942c.5,1.282.983,2.576,1.557,3.821a3.123,3.123,0,0,0,.578.835.587.587,0,0,0,.436.191.512.512,0,0,0,.352-.311,1.606,1.606,0,0,0,.1-1c-.084-.331-.189-.661-.289-.988l-1.239-3.943,0-.007v-.007C-796.883,797.236-796.931,796.213-796.87,795.189Z" transform="translate(799.533 -795.173)" fill="#fbc9a7" stroke="#2a333a" stroke-linecap="round" stroke-linejoin="round" stroke-width="2"/>
        </g>
      </g>
      <g id="Group_112" data-name="Group 112" transform="translate(88.146 293.543)">
        <path id="Path_123" data-name="Path 123" d="M-799,795.418c-.039.664.055,2.644.1,3.68,0,0,1.533,4.633,1.853,5.829s-.609,3.208-2.14-.22c-1.624-3.636-2.841-7.165-2.856-7.28-.047-.391-.078-.84-.093-1.318Z" transform="translate(802.137 -795.418)" fill="#fbc9a7" stroke="#2a333a" stroke-linecap="round" stroke-linejoin="round" stroke-width="2"/>
      </g>
      <g id="Group_114" data-name="Group 114" transform="translate(88.095 293.535)">
        <g id="Group_113" data-name="Group 113">
          <path id="Path_124" data-name="Path 124" d="M-799.039,795.411c-.013.614.034,1.226.054,1.84l.091,1.839,0-.013c.538,1.559,1.027,3.135,1.508,4.714.118.4.24.789.34,1.192a2.106,2.106,0,0,1-.113,1.23.667.667,0,0,1-.457.417.768.768,0,0,1-.58-.231,3.807,3.807,0,0,1-.737-1c-.752-1.476-1.364-3.008-1.973-4.542q-.451-1.153-.874-2.318a9.455,9.455,0,0,1-.376-1.191c-.041-.411-.063-.827-.072-1.24v-.041l.04-.009,3.151-.652Zm-.014.008-3.115.733.039-.051c.017.412.046.82.1,1.23.082.376.259.772.385,1.158q.417,1.163.866,2.316c.611,1.528,1.209,3.07,1.919,4.553a3.718,3.718,0,0,0,.708.992.706.706,0,0,0,.53.223.612.612,0,0,0,.421-.383,1.916,1.916,0,0,0,.1-1.194c-.1-.4-.235-.79-.359-1.183l-1.532-4.7,0-.007v-.007C-799.034,797.87-799.109,796.646-799.053,795.419Z" transform="translate(802.23 -795.403)" fill="#fbc9a7" stroke="#2a333a" stroke-linecap="round" stroke-linejoin="round" stroke-width="2"/>
        </g>
      </g>
      <g id="Group_116" data-name="Group 116" transform="translate(92.033 297.37)">
        <g id="Group_115" data-name="Group 115">
          <path id="Path_125" data-name="Path 125" d="M-795.089,802.358" transform="translate(795.089 -802.358)" fill="#fbc9a7"/>
        </g>
      </g>
      <path id="Path_126" data-name="Path 126" d="M-793.983,800.348c-.013-.225-.08-.7-.391-.764-.411-.09-2.04.346-1.935.995.041.255.274.388.6.42-.353.258-.626.565-.584.89,0,0,.289.509,1.354.031-.478.265-1.215.772-.935,1.24.294.492,1.223-.065,1.707-.4-.408.329-1.035.948-.62,1.356.589.579,1.542-.852,1.669-1A4.864,4.864,0,0,0-793.983,800.348Z" transform="translate(887.671 -503.738)" fill="#fbc9a7" stroke="#2a333a" stroke-linecap="round" stroke-linejoin="round" stroke-width="2"/>
      <path id="Path_127" data-name="Path 127" d="M-794.522,804.26h0a.506.506,0,0,1-.364-.156.483.483,0,0,1-.154-.379,1.124,1.124,0,0,1,.32-.634,1.9,1.9,0,0,1-.832.275.464.464,0,0,1-.431-.225.473.473,0,0,1-.052-.38,1.4,1.4,0,0,1,.56-.662,1.474,1.474,0,0,1-.318.036.675.675,0,0,1-.61-.266l-.008-.023c-.035-.278.13-.566.493-.859a.574.574,0,0,1-.5-.449.5.5,0,0,1,.135-.411,2.725,2.725,0,0,1,1.875-.654c.344.075.421.559.438.792a4.928,4.928,0,0,1,.873,2.5c.025.278-.008.314-.026.334s-.034.044-.063.082C-793.411,803.477-794,804.26-794.522,804.26Zm.265-1.606.075.1c-.267.217-.716.629-.733.977a.359.359,0,0,0,.117.286.382.382,0,0,0,.276.12c.462,0,1.043-.774,1.234-1.028.031-.041.054-.072.068-.088a4.994,4.994,0,0,0-.851-2.674l-.022-.016,0-.028c-.012-.193-.068-.646-.342-.706a.61.61,0,0,0-.122-.012,2.711,2.711,0,0,0-1.632.624.383.383,0,0,0-.107.311c.044.265.318.346.541.368l.162.017-.132.095c-.4.291-.585.566-.561.819a.582.582,0,0,0,.5.2,1.942,1.942,0,0,0,.773-.2l.055.111c-.314.175-.856.519-.95.868a.351.351,0,0,0,.039.285.347.347,0,0,0,.324.165A2.9,2.9,0,0,0-794.258,802.654Z" transform="translate(887.722 -503.687)" fill="#fbc9a7" stroke="#2a333a" stroke-linecap="round" stroke-linejoin="round" stroke-width="2"/>
      <path id="Path_128" data-name="Path 128" d="M-796.551,784.614c1.912,1.07,1.422,4.772,1.579,6.759.165,2.121.326,4.128-.664,4.165s-1.02-1.578-1.552-3.39c-.3-1.008-2.657-2.983-2.847,2.987a45.13,45.13,0,0,0,1.7,6.223c.427,1.228-.764,2.536-1.7.867a20.176,20.176,0,0,1-2.409-7.351,19.866,19.866,0,0,1,1.614-10.3" transform="translate(890.486 -497.009)" fill="#fbc9a7" stroke="#2a333a" stroke-linecap="round" stroke-linejoin="round" stroke-width="2"/>
      <path id="Path_129" data-name="Path 129" d="M-666.611,571.354c5-2.54,6.027-6.834,3.821-7.385s-5.889,5.081-5.889,5.081A2.379,2.379,0,0,1-666.611,571.354Z" transform="translate(830.421 -398.041)" fill="#fff" stroke="#2a333a" stroke-linecap="round" stroke-linejoin="round" stroke-width="2"/>
      <path id="Path_130" data-name="Path 130" d="M-625.7,567.958c-3.218-4.6-7.613-5.007-7.849-2.746s5.858,5.117,5.858,5.117A2.379,2.379,0,0,1-625.7,567.958Z" transform="translate(814.667 -398.016)" fill="#fff" stroke="#2a333a" stroke-linecap="round" stroke-linejoin="round" stroke-width="2"/>
      <line id="Line_1" data-name="Line 1" x2="6.617" transform="translate(181.968 178.611)" fill="#fbc9a7" stroke="#2a333a" stroke-linecap="round" stroke-linejoin="round" stroke-width="2"/>
      <line id="Line_2" data-name="Line 2" x2="6.066" transform="translate(167.079 178.06)" fill="#fbc9a7" stroke="#2a333a" stroke-linecap="round" stroke-linejoin="round" stroke-width="2"/>
      <path id="Path_131" data-name="Path 131" d="M-640.243,596v6.617H-643" transform="translate(818.902 -412.426)" fill="none" stroke="#2a333a" stroke-linecap="round" stroke-linejoin="round" stroke-width="2"/>
      <line id="Line_3" data-name="Line 3" x2="12.132" transform="translate(170.939 195.155)" fill="none" stroke="#2a333a" stroke-linecap="round" stroke-linejoin="round" stroke-width="2"/>
      <line id="Line_4" data-name="Line 4" x2="4.963" transform="translate(174.799 205.081)" fill="none" stroke="#2a333a" stroke-linecap="round" stroke-linejoin="round" stroke-width="2"/>
      <path id="Path_132" data-name="Path 132" d="M-637.538,618.4a7.373,7.373,0,0,1-7.081,5.319,7.374,7.374,0,0,1-7.1-5.4" transform="translate(822.814 -422.437)" fill="#8191a1"/>
      <path id="Path_133" data-name="Path 133" d="M-639.466,620.4a5.851,5.851,0,0,1-5.619,4.221,5.851,5.851,0,0,1-5.637-4.284" transform="translate(822.366 -423.343)" fill="none" stroke="#2a333a" stroke-linecap="round" stroke-linejoin="round" stroke-width="2"/>
      <line id="Line_5" data-name="Line 5" x2="13.786" transform="translate(170.388 196.809)" fill="none" stroke="#2a333a" stroke-linecap="round" stroke-linejoin="round" stroke-width="2"/>
      <path id="Path_134" data-name="Path 134" d="M-770.821,611.6a4.607,4.607,0,0,1,3.86-1.654" transform="translate(876.237 -418.681)" fill="none" stroke="#2a333a" stroke-linecap="round" stroke-linejoin="round" stroke-width="2"/>
      <path id="Path_135" data-name="Path 135" d="M-743.821,609.923a6.271,6.271,0,0,1,6.066,3.309" transform="translate(864.126 -418.658)" fill="none" stroke="#2a333a" stroke-linecap="round" stroke-linejoin="round" stroke-width="2"/>
      <path id="Path_136" data-name="Path 136" d="M-756.167,617.945s-1.654,3.86-1.654,4.963,2.206,1.1,2.206,1.1" transform="translate(870.405 -422.269)" fill="none" stroke="#2a333a" stroke-linecap="round" stroke-linejoin="round" stroke-width="2"/>
      <ellipse id="Ellipse_1" data-name="Ellipse 1" cx="0.902" cy="2.03" rx="0.902" ry="2.03" transform="translate(121.558 195.476)" fill="#2a333a" stroke="#2a333a" stroke-linecap="round" stroke-linejoin="round" stroke-width="1.636"/>
      <ellipse id="Ellipse_2" data-name="Ellipse 2" cx="0.902" cy="2.03" rx="0.902" ry="2.03" transform="translate(107.07 194.573)" fill="#2a333a" stroke="#2a333a" stroke-linecap="round" stroke-linejoin="round" stroke-width="1.636"/>
      <line id="Line_6" data-name="Line 6" x2="7.72" transform="translate(110.831 206.735)" fill="#2a333a" stroke="#2a333a" stroke-linecap="round" stroke-linejoin="round" stroke-width="1.636"/>
      <path id="Path_137" data-name="Path 137" d="M-753.1,637.945a3.617,3.617,0,0,1-3.86,3.309,3.616,3.616,0,0,1-3.86-3.309" transform="translate(871.751 -431.24)" fill="none" stroke="#2a333a" stroke-linecap="round" stroke-linejoin="round" stroke-width="1.89"/>
      <ellipse id="Ellipse_3" data-name="Ellipse 3" cx="0.902" cy="2.03" rx="0.902" ry="2.03" transform="translate(184.154 181.66)" fill="#2a333a" stroke="#2a333a" stroke-linecap="round" stroke-linejoin="round" stroke-width="1.636"/>
      <ellipse id="Ellipse_4" data-name="Ellipse 4" cx="0.902" cy="2.03" rx="0.902" ry="2.03" transform="translate(169.666 180.758)" fill="#2a333a" stroke="#2a333a" stroke-linecap="round" stroke-linejoin="round" stroke-width="1.636"/>
      <path id="Path_138" data-name="Path 138" d="M-874.643,780.344a4.079,4.079,0,0,1,3.418-1.465" transform="translate(922.806 -494.456)" fill="none" stroke="#2a333a" stroke-linecap="round" stroke-linejoin="round" stroke-width="1.771"/>
      <path id="Path_139" data-name="Path 139" d="M-850.739,778.859a5.553,5.553,0,0,1,5.371,2.929" transform="translate(912.084 -494.437)" fill="none" stroke="#2a333a" stroke-linecap="round" stroke-linejoin="round" stroke-width="1.771"/>
      <path id="Path_140" data-name="Path 140" d="M-861.668,785.962a22.693,22.693,0,0,0-1.465,4.394c0,.977,1.953.977,1.953.977" transform="translate(917.643 -497.633)" fill="none" stroke="#2a333a" stroke-linecap="round" stroke-linejoin="round" stroke-width="1.771"/>
      <ellipse id="Ellipse_5" data-name="Ellipse 5" cx="0.799" cy="1.798" rx="0.799" ry="1.798" transform="translate(62.455 288.151)" fill="#2a333a" stroke="#2a333a" stroke-linecap="round" stroke-linejoin="round" stroke-width="1.449"/>
      <ellipse id="Ellipse_6" data-name="Ellipse 6" cx="0.799" cy="1.798" rx="0.799" ry="1.798" transform="translate(49.628 287.352)" fill="#2a333a" stroke="#2a333a" stroke-linecap="round" stroke-linejoin="round" stroke-width="1.449"/>
      <line id="Line_7" data-name="Line 7" x2="6.835" transform="translate(52.958 298.12)" fill="#2a333a" stroke="#2a333a" stroke-linecap="round" stroke-linejoin="round" stroke-width="1.449"/>
      <path id="Path_141" data-name="Path 141" d="M-858.954,803.669a3.2,3.2,0,0,1-3.417,2.929,3.2,3.2,0,0,1-3.417-2.929" transform="translate(918.835 -505.576)" fill="none" stroke="#2a333a" stroke-linecap="round" stroke-linejoin="round" stroke-width="1.673"/>
      <line id="Line_8" data-name="Line 8" x2="4.224" transform="translate(179.399 134.321)" fill="#fbc9a7" stroke="#2a333a" stroke-linecap="round" stroke-linejoin="round" stroke-width="1.277"/>
      <line id="Line_9" data-name="Line 9" x2="3.872" transform="translate(169.895 133.969)" fill="#fbc9a7" stroke="#2a333a" stroke-linecap="round" stroke-linejoin="round" stroke-width="1.277"/>
      <path id="Path_142" data-name="Path 142" d="M-641.921,512.429v4.224h-1.76" transform="translate(819.207 -374.939)" fill="none" stroke="#2a333a" stroke-linecap="round" stroke-linejoin="round" stroke-width="1.277"/>
      <line id="Line_10" data-name="Line 10" x2="3.168" transform="translate(174.823 151.216)" fill="none" stroke="#2a333a" stroke-linecap="round" stroke-linejoin="round" stroke-width="1.277"/>
      <path id="Path_143" data-name="Path 143" d="M-641.424,528a3.736,3.736,0,0,1-3.587,2.695,3.735,3.735,0,0,1-3.6-2.734" transform="translate(821.418 -381.908)" fill="none" stroke="#2a333a" stroke-linecap="round" stroke-linejoin="round" stroke-width="1.277"/>
      <line id="Line_11" data-name="Line 11" x2="8.799" transform="translate(172.007 145.937)" fill="none" stroke="#2a333a" stroke-linecap="round" stroke-linejoin="round" stroke-width="1.277"/>
      <ellipse id="Ellipse_7" data-name="Ellipse 7" cx="0.576" cy="1.296" rx="0.576" ry="1.296" transform="translate(180.794 136.268)" fill="#2a333a" stroke="#2a333a" stroke-linecap="round" stroke-linejoin="round" stroke-width="1.044"/>
      <ellipse id="Ellipse_8" data-name="Ellipse 8" cx="0.576" cy="1.296" rx="0.576" ry="1.296" transform="translate(171.547 135.692)" fill="#2a333a" stroke="#2a333a" stroke-linecap="round" stroke-linejoin="round" stroke-width="1.044"/>
      <path id="Path_144" data-name="Path 144" d="M-808.351,379.533s9.525-10.715,17.859,1.191c0,0,9.524-5.953,13.1,4.762s-11.905,8.333-13.1,4.762c0,0-7.143,10.715-17.859,2.381,0,0-13.714,8.814-16.668-5.952C-827.4,374.771-810.732,374.771-808.351,379.533Z" transform="translate(900.651 -313.343)" fill="none" stroke="#031b2f" stroke-linecap="round" stroke-miterlimit="10" stroke-width="2"/>
      <path id="Path_145" data-name="Path 145" d="M-603.351,267.533s9.525-10.715,17.859,1.191c0,0,9.524-5.953,13.1,4.762s-11.905,8.333-13.1,4.762c0,0-7.143,10.715-17.859,2.381,0,0-13.714,8.814-16.668-5.952C-622.4,262.771-605.732,262.771-603.351,267.533Z" transform="translate(808.698 -263.105)" fill="none" stroke="#031b2f" stroke-linecap="round" stroke-miterlimit="10" stroke-width="2"/>
    </g>
  </g>
</svg>
