<svg xmlns="http://www.w3.org/2000/svg" xmlns:xlink="http://www.w3.org/1999/xlink" width="77" height="95" viewBox="0 0 77 95">
  <defs>
    <clipPath id="clip-path">
      <path id="Path_349" data-name="Path 349" d="M-4,0H73V95H0Z" transform="translate(925 1240)" fill="#fff" stroke="#707070" stroke-width="1"/>
    </clipPath>
  </defs>
  <g id="Mask_Group_1" data-name="Mask Group 1" transform="translate(-921 -1240)" clip-path="url(#clip-path)">
    <g id="Group_158" data-name="Group 158" transform="translate(662.192 1031.075)">
      <path id="Path_159" data-name="Path 159" d="M303.6,271.111V281.3c0,1.887,2.188,3.4,4.076,3.4h0a3.407,3.407,0,0,0,3.4-3.4V270.431a18.978,18.978,0,0,0,2.868-.792l-2.377-25.929.3-8.869c-.226-.793.641-.228.641-.228s2.6,8.681,4.076,13.136c0,0,1.4,1.849,3.283,1.094a2.834,2.834,0,0,0,1.888-2.49c-1.737-5.473-5.511-17.74-6.568-20.42a5.618,5.618,0,0,0-4.378-3.509c-7.511-2.227-4.039.415-6.756.415-2.793,0-.377-1.51-6.755-.528h-.114a4.965,4.965,0,0,0-2.982,1.17,8.128,8.128,0,0,0-2.679,3.849l-1.813,5.322" transform="translate(8.08 3.185)" fill="#fff"/>
      <path id="Path_160" data-name="Path 160" d="M303.6,281.3c0,1.887,2.188,3.4,4.076,3.4h0a3.407,3.407,0,0,0,3.4-3.4V270.431a18.978,18.978,0,0,0,2.868-.792l-2.377-25.929.3-8.869c-.226-.793.641-.228.641-.228s2.6,8.681,4.076,13.136c0,0,1.4,1.849,3.283,1.094a2.834,2.834,0,0,0,1.888-2.49c-1.737-5.473-5.511-17.74-6.568-20.42a5.618,5.618,0,0,0-4.378-3.509c-7.511-2.227-4.039.415-6.756.415-2.793,0-.377-1.51-6.755-.528h-.114a4.965,4.965,0,0,0-2.982,1.17,8.128,8.128,0,0,0-2.679,3.849l-1.813,5.322" transform="translate(8.08 3.185)" fill="#fff" stroke="#547bbf" stroke-miterlimit="10" stroke-width="2"/>
      <path id="Path_161" data-name="Path 161" d="M291.689,237.922c.944-2.227,2.227-5.1,2.378-5.322.415-.642.679.377.679.377l.151,7.058-2.528,26.949s1.056.3,2.754.641v11.021c0,1.887,4.455,5.7,8.605,1.17V246.979l-7.548-15.852-1.887-.755-2.6,7.55" transform="translate(8.673 5.84)" fill="#fff"/>
      <circle id="Ellipse_22" data-name="Ellipse 22" cx="3.019" cy="3.019" r="3.019" transform="translate(304.136 210.925)" fill="#fff" stroke="#547bbf" stroke-miterlimit="10" stroke-width="2"/>
      <path id="Path_162" data-name="Path 162" d="M287.65,235.829l-1.283,3.7s-1.133,2.416.793,3.51c1.585.906,2.868-.415,3.283-.867" transform="translate(6.975 7.479)" fill="#fff" stroke="#547bbf" stroke-miterlimit="10" stroke-width="2"/>
      <path id="Path_163" data-name="Path 163" d="M283.053,282.4c0,1.962-2.718,3.246-4.6,3.246h0a3.5,3.5,0,0,1-3.434-3.549V257.642l-.793-24c.226-.831-.641-.228-.641-.228s-2.793,9.059-4.227,13.4a2.788,2.788,0,0,1-1.057,1.4h0a2.739,2.739,0,0,1-4.19-1.4l-.075-.189a2.624,2.624,0,0,1,0-1.7c1.623-5.132,5.737-17.663,6.87-20.569a5.462,5.462,0,0,1,2.151-2.755,3.769,3.769,0,0,1,4.378.452c1.51,1.359,2.718-.038,4.87-.038,2.793,0,2.188.718,3.773-1.51l3.019.075a5.155,5.155,0,0,1,3.285,1.434,8.65,8.65,0,0,1,2.415,3.7l6.681,19.627s1.133,2.528-.792,3.66a2.359,2.359,0,0,1-2.983-.566,2.261,2.261,0,0,1-.6-.944c-.906-2.226-5.171-12.833-5.548-13.436-.415-.68-.716.415-.716.415l-.189,9.851-.077,3.17-.113,6.191v28.382a3.5,3.5,0,0,1-3.434,3.549h0c-1.887,0-4.039-1.585-4.039-3.549V253.906" transform="translate(0.325 2.876)" fill="#fff" stroke="#547bbf" stroke-miterlimit="10" stroke-width="2"/>
      <g id="Group_156" data-name="Group 156" transform="translate(262.808 253.745)">
        <path id="Path_164" data-name="Path 164" d="M269.489,278.975,269.6,247.2a2.98,2.98,0,0,0-1.321-2.793,4.248,4.248,0,0,0-4.152,0,3.17,3.17,0,0,0-1.321,2.868" transform="translate(-262.808 -243.855)" fill="none" stroke="#547bbf" stroke-miterlimit="10" stroke-width="2"/>
      </g>
      <ellipse id="Ellipse_23" data-name="Ellipse 23" cx="6.907" cy="7.171" rx="6.907" ry="7.171" transform="translate(304.967 214.51)" fill="#fff" stroke="#547bbf" stroke-miterlimit="10" stroke-width="2"/>
      <ellipse id="Ellipse_24" data-name="Ellipse 24" cx="6.416" cy="6.831" rx="6.416" ry="6.831" transform="translate(276.018 213.567)" fill="#fff" stroke="#547bbf" stroke-miterlimit="10" stroke-width="2"/>
      <g id="Group_157" data-name="Group 157" transform="translate(326.48 254.138)">
        <path id="Path_165" data-name="Path 165" d="M311.888,278.507l-.113-31.1a2.9,2.9,0,0,1,1.321-2.718,4.352,4.352,0,0,1,4.152,0,3.074,3.074,0,0,1,1.321,2.831" transform="translate(-311.775 -244.158)" fill="none" stroke="#547bbf" stroke-miterlimit="10" stroke-width="2"/>
      </g>
      <path id="Path_166" data-name="Path 166" d="M291.689,237.456c.944-2.227,2.227-5.1,2.378-5.322.415-.642.679.377.679.377l.151,7.058-2.528,26.949s1.056.3,2.754.641V278.18c0,1.887,4.076,5.7,8.228,1.17" transform="translate(8.673 6.305)" fill="none" stroke="#547bbf" stroke-miterlimit="10" stroke-width="2"/>
      <path id="Path_167" data-name="Path 167" d="M300.687,260.821v10.19" transform="translate(11.375 14.984)" fill="#fff" stroke="#547bbf" stroke-miterlimit="10" stroke-width="2"/>
    </g>
  </g>
</svg>
