<svg xmlns="http://www.w3.org/2000/svg" xmlns:xlink="http://www.w3.org/1999/xlink" width="69" height="95" viewBox="0 0 69 95">
  <defs>
    <clipPath id="clip-path">
      <rect id="Rectangle_165" data-name="Rectangle 165" width="69" height="95" transform="translate(347 1240)" fill="#fff" stroke="#707070" stroke-width="1"/>
    </clipPath>
  </defs>
  <g id="Mask_Group_2" data-name="Mask Group 2" transform="translate(-347 -1240)" clip-path="url(#clip-path)">
    <g id="Group_155" data-name="Group 155" transform="translate(521.964 382.628)">
      <path id="Path_149" data-name="Path 149" d="M-128.613,894.086s-1.389,9.72,11.455,12.15c0,0,2.972-6.777-2.329-10.477C-124.621,892.176-128.613,894.086-128.613,894.086Z" fill="none" stroke="#03a6e2" stroke-miterlimit="10" stroke-width="2"/>
      <ellipse id="Ellipse_20" data-name="Ellipse 20" cx="8.678" cy="9.72" rx="8.678" ry="9.72" transform="translate(-133.82 893.391)" fill="none" stroke="#03a6e2" stroke-miterlimit="10" stroke-width="2"/>
      <line id="Line_32" data-name="Line 32" y2="30.448" transform="translate(-140.199 880.894)" fill="none" stroke="#03a6e2" stroke-miterlimit="10" stroke-width="2"/>
      <path id="Path_150" data-name="Path 150" d="M-139.722,928.452h-31.242v-1.041a14.578,14.578,0,0,1,14.58-14.58h2.082a14.578,14.578,0,0,1,14.58,14.58Z" fill="none" stroke="#03a6e2" stroke-miterlimit="10" stroke-width="2"/>
      <path id="Path_151" data-name="Path 151" d="M-109,928.279h-31.242v-1.041a14.578,14.578,0,0,1,14.579-14.58h2.083A14.578,14.578,0,0,1-109,927.238Z" fill="none" stroke="#03a6e2" stroke-miterlimit="10" stroke-width="2"/>
      <path id="Path_152" data-name="Path 152" d="M-155.517,911.963h0a7.29,7.29,0,0,1-7.29-7.29v-3.818h14.58v3.818A7.289,7.289,0,0,1-155.517,911.963Z" fill="none" stroke="#03a6e2" stroke-miterlimit="10" stroke-width="2"/>
      <path id="Path_153" data-name="Path 153" d="M-162.98,900.855c0-7.637,7.477-7.29,7.477-7.29h9.856a6.565,6.565,0,0,1-3.059,7.29Z" fill="none" stroke="#03a6e2" stroke-miterlimit="10" stroke-width="2"/>
      <circle id="Ellipse_21" data-name="Ellipse 21" cx="5.554" cy="5.554" r="5.554" transform="translate(-146.491 910.922)" fill="#fff" stroke="#03a6e2" stroke-miterlimit="10" stroke-width="2"/>
      <path id="Path_154" data-name="Path 154" d="M-128.96,933.66h-23.259a11.63,11.63,0,0,1,11.629-11.63h0a11.631,11.631,0,0,1,11.63,11.63Z" fill="#fff" stroke="#03a6e2" stroke-miterlimit="10" stroke-width="2"/>
      <path id="Path_155" data-name="Path 155" d="M-168.892,889.083a.768.768,0,0,1-.76.768.764.764,0,0,1-.781-.768,29.6,29.6,0,0,1,29.6-29.6,29.59,29.59,0,0,1,29.59,29.6.769.769,0,0,1-.823.768.764.764,0,0,1-.795-.768c0-9.417-17.648-9.754-17.648,0,.007.868-1.51,1.306-1.545-.256-.358-8.623-16-9.647-17.551-.8,0,.35-.007.7-.007,1.055a.815.815,0,0,1-1.628,0C-151.25,879.666-168.892,879.332-168.892,889.083Z" fill="#fff" stroke="#03a6e2" stroke-miterlimit="10" stroke-width="2"/>
      <path id="Path_156" data-name="Path 156" d="M-128.613,894.086s-1.389,9.72,11.455,12.15" fill="none" stroke="#03a6e2" stroke-miterlimit="10" stroke-width="2"/>
      <path id="Path_157" data-name="Path 157" d="M-140.416,859.372s-10.341,7.314-10.06,30.548" fill="none" stroke="#03a6e2" stroke-miterlimit="10" stroke-width="2"/>
      <path id="Path_158" data-name="Path 158" d="M-141.11,859.372s9.133,3.693,9.893,30.375" fill="none" stroke="#03a6e2" stroke-miterlimit="10" stroke-width="2"/>
    </g>
  </g>
</svg>
