<svg xmlns="http://www.w3.org/2000/svg" width="72.465" height="97.463" viewBox="0 0 72.465 97.463">
  <g id="Group_217" data-name="Group 217" transform="translate(-44 -13)">
    <path id="Path_308" data-name="Path 308" d="M162.269,209.247l3.406-1.022,1.056-2.691a11.544,11.544,0,0,0,9.163-.034l1.363,2.725s6.813,1.022,9.879,5.11,2.385,14.307,2.385,14.307H157.5V222.43a29.562,29.562,0,0,0,3.338-3.27" transform="translate(-74.178 -123.629)" fill="#fff" stroke="#ae329e" stroke-linecap="round" stroke-linejoin="round" stroke-width="2"/>
    <path id="Path_309" data-name="Path 309" d="M112.8,18s4.939,7.222,16.93,6.336c0,0-.511,24.152-16.794,29.942,0,0-15.465-3.679-17.032-29.4A24.838,24.838,0,0,0,112.8,18Z" transform="translate(-35.561 -4)" fill="#fff" stroke="#ae329e" stroke-linecap="round" stroke-linejoin="round" stroke-width="2"/>
    <circle id="Ellipse_32" data-name="Ellipse 32" cx="6.438" cy="6.438" r="6.438" transform="translate(80.3 37.198)" fill="#fff" stroke="#ae329e" stroke-linecap="round" stroke-linejoin="round" stroke-width="2"/>
    <g id="Group_217-2" data-name="Group 217" transform="translate(65.755 23.231)">
      <path id="Path_310" data-name="Path 310" d="M111.8,54.339h2.112v-6.2h-1.737V47.083a6.069,6.069,0,0,0,2.18-.783h1.26v8.005h1.839v1.431H111.8Z" transform="translate(-111.8 -45.891)" fill="#ae329e"/>
      <path id="Path_311" data-name="Path 311" d="M141.6,50.142c0-3.168,1.976-5.042,4.428-5.042a3.836,3.836,0,0,1,2.793,1.226l-.92,1.124a2.535,2.535,0,0,0-1.839-.852c-1.567,0-2.691,1.329-2.691,3.509,0,2.214,1.022,3.543,2.657,3.543a2.818,2.818,0,0,0,2.078-.988l.92,1.09a3.938,3.938,0,0,1-3.032,1.4C143.508,55.115,141.6,53.344,141.6,50.142Z" transform="translate(-131.449 -45.1)" fill="#ae329e"/>
      <path id="Path_312" data-name="Path 312" d="M167.534,52.37h1.4l.1,1.294h.068a2.454,2.454,0,0,1,2.044-1.465,1.77,1.77,0,0,1,.818.136l-.307,1.465a2.492,2.492,0,0,0-.749-.1c-.579,0-1.26.409-1.7,1.5v4.428h-1.7V52.37Z" transform="translate(-148.526 -49.781)" fill="#ae329e"/>
    </g>
    <path id="Path_313" data-name="Path 313" d="M164.1,101.114l1.805,1.908,4.122-4.122" transform="translate(-80.529 -57.342)" fill="none" stroke="#ae329e" stroke-linecap="round" stroke-linejoin="round" stroke-width="2"/>
    <path id="Path_314" data-name="Path 314" d="M48.747,160.021,45,159s3.406-5.45,3.747-10.219c.307-4.462-1.158-15.261,4.292-17.407a4.957,4.957,0,0,0,2.01-1.431c1.5-1.737,5.11-4.7,11.1-2.964,8.175,2.385,9.2,7.835,9.879,10.9s.681,14.818.681,14.818v8.857" transform="translate(0 -71.508)" fill="#fff" stroke="#ae329e" stroke-linecap="round" stroke-linejoin="round" stroke-width="2"/>
    <path id="Path_315" data-name="Path 315" d="M166.361,140.479s-1.874-11.718,3.3-13.762c.579-.238,1.192-.136,1.7-.579,1.465-1.26,4.871-3.747,9.674-.681,6.438,4.088,4.973,10.935,4.973,14.682" transform="translate(-79.802 -69.883)" fill="#fff" stroke="#ae329e" stroke-linecap="round" stroke-linejoin="round" stroke-width="2"/>
    <path id="Path_316" data-name="Path 316" d="M179.885,204.522l-.92,2.146-1.465.579c0,3.066,3.3,5.893,7.153,5.893s7.154-2.793,7.154-5.893l-1.363-.341-1.7-3.406" transform="translate(-87.365 -122.311)" fill="#fff" stroke="#ae329e" stroke-linecap="round" stroke-linejoin="round" stroke-width="2"/>
    <path id="Path_317" data-name="Path 317" d="M166.888,158.5s2.044-.034,2.35-1.431c.273-1.363.852-4.769,2.589-5.11s4.905-.341,6.643,1.363,4.633,4.088,7.222,4.428l.613.136s.511,7.358-4.667,11.48c-5.212,4.088-10.049,1.294-12.536-2.419A15.786,15.786,0,0,1,166.888,158.5Z" transform="translate(-80.363 -88.207)" fill="#fff" stroke="#ae329e" stroke-linecap="round" stroke-linejoin="round" stroke-width="2"/>
    <path id="Path_318" data-name="Path 318" d="M68.29,207.841,70.2,210.5l3.883,1.09s6.472,3.406,6.132,7.494a8.354,8.354,0,0,1-4.769,7.154,41.383,41.383,0,0,0-4.258,2.555H47s.681-7.835,1.7-12.6,6.132-5.11,8.516-6.132,2.555-2.555,2.555-2.555" transform="translate(-1.319 -124.948)" fill="#fff" stroke="#ae329e" stroke-linecap="round" stroke-linejoin="round" stroke-width="2"/>
    <path id="Path_319" data-name="Path 319" d="M87.4,207.5l2.384,3.066-6.472,3.747L76.5,210.225a5.171,5.171,0,0,0,2.657-2.453" transform="translate(-20.77 -124.948)" fill="#fff" stroke="#ae329e" stroke-linecap="round" stroke-linejoin="round" stroke-width="2"/>
    <path id="Path_320" data-name="Path 320" d="M126.5,209.97c0-5.212,3.509-9.47,7.835-9.47s8.175,4.088,7.835,10.219" transform="translate(-53.738 -120.333)" fill="#fff" stroke="#ae329e" stroke-linecap="round" stroke-linejoin="round" stroke-width="2"/>
    <path id="Path_321" data-name="Path 321" d="M69.137,169.678s-1.022,4.769,1.7,8.175a12.123,12.123,0,0,0,7.154,4.428c1.363.341,10.219-2.725,10.219-11.582a40.742,40.742,0,0,1-4.088-3.066c-1.022-1.022-4.769.681-7.153,0s-4.088-.681-5.45.681A3.839,3.839,0,0,1,69.137,169.678Z" transform="translate(-15.791 -98.367)" fill="#fff" stroke="#ae329e" stroke-linecap="round" stroke-linejoin="round" stroke-width="2"/>
    <path id="Path_322" data-name="Path 322" d="M138.6,254.556l.647-1.056c2.384,1.363,6.132.341,6.132.341a5.692,5.692,0,0,0,3.406,2.725c2.725,1.022,4.428,2.044,4.428,5.11v3.066" transform="translate(-61.716 -155.279)" fill="#fff" stroke="#ae329e" stroke-linecap="round" stroke-linejoin="round" stroke-width="2"/>
    <path id="Path_323" data-name="Path 323" d="M125.335,253.6a5.584,5.584,0,0,1-3.406,3.032c-2.725,1.022-4.428,2.044-4.428,5.11v2.725s15.329.341,21.8.341" transform="translate(-47.803 -155.345)" fill="#fff" stroke="#ae329e" stroke-linecap="round" stroke-linejoin="round" stroke-width="2"/>
    <path id="Path_324" data-name="Path 324" d="M126.5,222.835a8.487,8.487,0,0,0,3.577-1.874c1.363-1.363,3.747.341,5.791,0s4.258.17,6.3,3.236c0,0-.681,5.723-5.11,7.8s-7.835-1.669-8.857-3.713A27.188,27.188,0,0,1,126.5,222.835Z" transform="translate(-53.738 -133.47)" fill="#fff" stroke="#ae329e" stroke-linecap="round" stroke-linejoin="round" stroke-width="2"/>
  </g>
</svg>
