<svg xmlns="http://www.w3.org/2000/svg" width="53.301" height="54.024" viewBox="0 0 53.301 54.024">
  <g id="CARE_HI_LOGO-01" data-name="CARE HI LOGO-01" transform="translate(0 0.3)">
    <g id="Group_255" data-name="Group 255" transform="translate(0 40.137)">
      <line id="Line_39" data-name="Line 39" x2="53.301" fill="none" stroke="#231f20" stroke-miterlimit="10" stroke-width="0.273"/>
      <g id="Group_254" data-name="Group 254" transform="translate(0.035 4.626)">
        <g id="Group_253" data-name="Group 253">
          <path id="Path_349" data-name="Path 349" d="M5.653,255.151a.282.282,0,0,1-.088.193.293.293,0,0,1-.194.07l-.141-.018a19.139,19.139,0,0,0-.668,2.005c-.194.686-.369,1.372-.563,2.041a.27.27,0,0,1-.123.176.244.244,0,0,1-.194.035.185.185,0,0,1-.158-.088.28.28,0,0,1-.07-.211,1.723,1.723,0,0,1,.07-.4c.053-.211.123-.44.194-.7s.158-.563.264-.88c.088-.317.176-.6.264-.88.088-.264.176-.51.229-.721.07-.211.106-.352.141-.422a12.869,12.869,0,0,0-1.442.018c-.44.035-.774.053-1.02.07-.053.158-.106.352-.176.563s-.123.44-.194.686-.141.493-.211.756-.141.493-.229.739a.34.34,0,0,1-.158.211.3.3,0,0,1-.211.035.365.365,0,0,1-.176-.106.252.252,0,0,1-.018-.229c.018-.035.035-.106.07-.211s.053-.229.106-.352c.035-.141.07-.281.123-.44s.088-.3.123-.422.07-.246.088-.334a.518.518,0,0,1,.053-.176.244.244,0,0,1-.176.088.589.589,0,0,1-.246-.07,1.333,1.333,0,0,1-.317-.158c-.106-.07-.194-.141-.281-.211A.335.335,0,0,1,.2,255.59a.3.3,0,0,1,.176-.264,1.744,1.744,0,0,1,.4-.176,2.229,2.229,0,0,1,.493-.106c.176-.018.317-.053.422-.07a1.635,1.635,0,0,0,.07-.246c.035-.123.07-.281.123-.457s.106-.352.158-.563c.053-.194.106-.387.158-.545a2.934,2.934,0,0,1,.141-.422c.035-.106.07-.176.106-.176a.452.452,0,0,1,.264-.018.2.2,0,0,1,.141.211c0,.035-.018.106-.035.211s-.053.229-.088.369-.07.3-.123.457-.088.317-.123.457-.07.281-.106.4-.053.211-.07.264c.422-.035.827-.07,1.249-.088s.844-.018,1.267,0c.035-.106.106-.264.194-.493s.176-.475.3-.774c.106-.281.229-.581.352-.88s.246-.6.352-.862.211-.493.3-.686a1.252,1.252,0,0,1,.211-.352.291.291,0,0,1,.211-.088.177.177,0,0,1,.176.106.261.261,0,0,1,0,.229c-.088.211-.211.475-.334.774s-.264.633-.387.967c-.141.334-.264.686-.387,1.055-.123.352-.246.7-.352,1.038a.542.542,0,0,1,.176.088C5.618,255.027,5.653,255.08,5.653,255.151Zm-4.31.862c.035-.088.053-.158.088-.246.018-.088.053-.176.07-.264-.123.018-.264.035-.4.053s-.264.053-.4.07a.713.713,0,0,0,.176.053,1.075,1.075,0,0,1,.211.088c.07.035.123.07.194.106C1.308,255.925,1.343,255.96,1.343,256.013Z" transform="translate(-0.2 -250.7)" fill="#231f20"/>
          <path id="Path_350" data-name="Path 350" d="M33.745,281.985a.054.054,0,0,1,.035-.018l.053.053a.134.134,0,0,1,.035.088.159.159,0,0,1-.018.088,1.254,1.254,0,0,1-.457.51,2.786,2.786,0,0,1-.668.369,1.744,1.744,0,0,1-.457.106,1.309,1.309,0,0,1-.457-.035.658.658,0,0,1-.352-.211.77.77,0,0,1-.158-.44,1.482,1.482,0,0,1,.07-.475,2.024,2.024,0,0,1,.211-.44c.035-.07.088-.123.123-.193a1.868,1.868,0,0,1,.158-.194,1.341,1.341,0,0,1,.194-.141.487.487,0,0,1,.229-.053.3.3,0,0,1,.246.106.424.424,0,0,1,.07.264.762.762,0,0,1-.07.334,1.35,1.35,0,0,1-.176.317.575.575,0,0,1-.264.194.542.542,0,0,1-.334,0c-.018.053-.018.106-.035.193a.856.856,0,0,0,.018.211.3.3,0,0,0,.123.176.365.365,0,0,0,.264.07,1.433,1.433,0,0,0,.545-.106,3,3,0,0,0,.475-.246,2.049,2.049,0,0,0,.352-.281A1.514,1.514,0,0,0,33.745,281.985Zm-1.794-.193c0,.018-.018.035-.018.053s-.018.035-.018.053v.035c0,.018.018,0,.053,0a.326.326,0,0,0,.158-.123c.053-.053.106-.123.158-.176a.414.414,0,0,0,.088-.176.074.074,0,0,0-.053-.106.129.129,0,0,0-.106.035l-.106.106a.383.383,0,0,0-.088.141C31.986,281.7,31.968,281.756,31.951,281.792Z" transform="translate(-25.829 -275.67)" fill="#231f20"/>
          <path id="Path_351" data-name="Path 351" d="M47.325,281.609c.035,0,.07.035.088.088a.248.248,0,0,1,.018.158.661.661,0,0,1-.158.281,1.422,1.422,0,0,1-.281.281,1.366,1.366,0,0,1-.387.211,1.225,1.225,0,0,1-.44.088.488.488,0,0,1-.422-.193.716.716,0,0,1-.141-.422c-.07.07-.141.158-.229.246a3.378,3.378,0,0,1-.264.246,1.744,1.744,0,0,1-.3.194.69.69,0,0,1-.317.07.481.481,0,0,1-.493-.493.621.621,0,0,1,.07-.3.892.892,0,0,1,.158-.281l.211-.264a2.8,2.8,0,0,1,.229-.229,4.423,4.423,0,0,1,.422-.334.916.916,0,0,1,.51-.158.44.44,0,0,1,.246.07.344.344,0,0,1,.141.229,1.207,1.207,0,0,0,.141.053c.053.018.088.07.123.158-.053.141-.088.264-.123.369a1.25,1.25,0,0,0-.053.369.355.355,0,0,0,.053.194c.035.07.07.106.141.106a.789.789,0,0,0,.334-.088,3.067,3.067,0,0,0,.317-.193,1.184,1.184,0,0,0,.264-.246A2.2,2.2,0,0,0,47.325,281.609Zm-2.815.967a.515.515,0,0,0,.352-.176,4.216,4.216,0,0,0,.369-.4,3.069,3.069,0,0,0,.281-.44.648.648,0,0,0,.123-.281.254.254,0,0,0-.035-.123c-.018-.035-.07-.035-.141,0a1.567,1.567,0,0,0-.51.352,3.232,3.232,0,0,0-.4.475,1.043,1.043,0,0,0-.193.4C44.369,282.506,44.4,282.577,44.51,282.577Z" transform="translate(-36.295 -275.505)" fill="#231f20"/>
          <path id="Path_352" data-name="Path 352" d="M63.492,256.37a.133.133,0,0,1,.07.123c-.018.035-.07.141-.158.334-.07.194-.176.44-.281.739s-.229.616-.352.985-.264.739-.387,1.108-.246.739-.352,1.108q-.158.528-.264.95a5.8,5.8,0,0,0-.141.668c-.018.176,0,.246.035.246a.985.985,0,0,0,.44-.123c.158-.088.334-.176.493-.281s.3-.229.44-.334a2.578,2.578,0,0,0,.3-.264c.018-.018.035,0,.053.018s.018.053.035.106a.387.387,0,0,1-.018.141.527.527,0,0,1-.07.141c-.07.07-.176.176-.317.3a5.171,5.171,0,0,1-.457.352,3.52,3.52,0,0,1-.493.281.931.931,0,0,1-.44.123.491.491,0,0,1-.387-.158.5.5,0,0,1-.141-.387,2.258,2.258,0,0,1,.07-.44c.053-.211.123-.475.193-.774.088-.3.176-.633.281-.985s.229-.721.352-1.091.246-.721.369-1.073.246-.651.352-.915.211-.493.3-.668.158-.264.211-.281l.088-.018C63.4,256.335,63.457,256.353,63.492,256.37Z" transform="translate(-50.194 -255.315)" fill="#231f20"/>
          <path id="Path_353" data-name="Path 353" d="M74.313,265.072h.563a1.039,1.039,0,0,1,.246.035.134.134,0,0,1,.106.141.139.139,0,0,1-.088.141.52.52,0,0,1-.176.035l-.809.018c-.07.176-.141.4-.229.651s-.176.493-.264.756a7.32,7.32,0,0,0-.211.774,3.5,3.5,0,0,0-.088.668.343.343,0,0,0,.018.123.117.117,0,0,0,.123.088.729.729,0,0,0,.352-.106,2.515,2.515,0,0,0,.352-.246,1.865,1.865,0,0,0,.264-.264,1.864,1.864,0,0,1,.141-.158c.141-.018.176.035.123.158a1.755,1.755,0,0,1-.211.334,3,3,0,0,1-.334.334,1.883,1.883,0,0,1-.387.264.856.856,0,0,1-.387.106.572.572,0,0,1-.457-.176.658.658,0,0,1-.158-.457,3.555,3.555,0,0,1,.088-.633c.07-.264.141-.528.229-.809s.176-.545.264-.809.158-.457.229-.616a.606.606,0,0,0-.158.018H73.24a.4.4,0,0,1-.193-.053.132.132,0,0,1-.088-.123c0-.053.035-.088.088-.123a.882.882,0,0,1,.211-.035H73.5a.547.547,0,0,0,.193-.018c.088-.229.176-.422.246-.563s.141-.3.211-.457a1.538,1.538,0,0,1,.211-.352c.018-.018.035-.018.07-.018a.25.25,0,0,1,.106.035.176.176,0,0,1,.088.07c.018.035.035.053.035.088a.707.707,0,0,1-.07.229,3.422,3.422,0,0,1-.141.387c-.053.141-.088.264-.141.369A.6.6,0,0,1,74.313,265.072Z" transform="translate(-59.799 -261.413)" fill="#231f20"/>
          <path id="Path_354" data-name="Path 354" d="M83.469,264.236a.127.127,0,0,1,.035.141.943.943,0,0,1-.088.193.781.781,0,0,1-.141.194,1.143,1.143,0,0,1-.123.141,2.616,2.616,0,0,1-.317.3.679.679,0,0,1-.387.194.434.434,0,0,1-.334-.07.41.41,0,0,1-.176-.3.66.66,0,0,1,0-.264c.018-.106.018-.211.035-.3s.018-.176.035-.246c0-.07,0-.106-.035-.106a.272.272,0,0,0-.211.123,1.829,1.829,0,0,0-.246.334,5.277,5.277,0,0,0-.264.457,3.42,3.42,0,0,0-.229.528c-.07.176-.123.334-.176.493a1.405,1.405,0,0,0-.088.4c-.018.088-.035.194-.053.281a.209.209,0,0,1-.193.158c-.141.018-.211-.035-.229-.158a1.455,1.455,0,0,1,.018-.616c.035-.211.088-.4.141-.616a20.107,20.107,0,0,1,.686-2.375,19.515,19.515,0,0,1,1-2.41,2.1,2.1,0,0,0,.141-.281c.053-.106.088-.194.141-.281.035-.07.07-.141.123-.229s.106-.158.176-.176a.216.216,0,0,1,.211.035.156.156,0,0,1,.035.193l-.106.211-.106.211c-.3.6-.581,1.214-.844,1.882a17.461,17.461,0,0,0-.651,1.988c.053-.07.106-.123.176-.211a1.215,1.215,0,0,1,.229-.194,1.257,1.257,0,0,1,.264-.141.388.388,0,0,1,.281,0,.254.254,0,0,1,.193.158,1.008,1.008,0,0,1,.07.246,1.514,1.514,0,0,1-.018.281,1.64,1.64,0,0,0-.035.246v.229a.261.261,0,0,0,.018.123c.018.035.018.053.035.053a.44.44,0,0,0,.193-.088,1.252,1.252,0,0,0,.229-.211,3.06,3.06,0,0,0,.229-.264c.07-.088.141-.158.193-.229s.088-.106.106-.106C83.381,264.184,83.416,264.2,83.469,264.236Z" transform="translate(-65.92 -258.15)" fill="#231f20"/>
          <path id="Path_355" data-name="Path 355" d="M109.113,262.463a.816.816,0,0,0,.334-.07c.123-.053.246-.106.352-.158a2.241,2.241,0,0,0,.334-.229,1.022,1.022,0,0,0,.229-.264q0-.026.053,0c.018.018.053.035.07.053a.384.384,0,0,1,.053.088.077.077,0,0,1-.018.088,1.4,1.4,0,0,1-.264.317,1.674,1.674,0,0,1-.352.264,1.885,1.885,0,0,1-.387.176,1.063,1.063,0,0,1-.387.07.907.907,0,0,1-.633-.229,1.467,1.467,0,0,1-.387-.581c-.053.176-.088.334-.123.457s-.053.246-.088.369a2.733,2.733,0,0,0-.07.369c-.018.123-.053.281-.088.457a.227.227,0,0,1-.088.193.355.355,0,0,1-.193.053.172.172,0,0,1-.176-.158,1.123,1.123,0,0,1-.018-.352,3.248,3.248,0,0,1,.07-.4c.035-.141.053-.229.07-.3.123-.4.246-.774.352-1.143s.229-.739.352-1.143.264-.862.44-1.372c.158-.51.369-1.108.6-1.812.018-.035.035-.088.07-.176a1.454,1.454,0,0,1,.123-.229c.053-.07.088-.141.141-.211.053-.053.088-.088.123-.088a.477.477,0,0,1,.141.053.123.123,0,0,1,.07.158c-.018.088-.07.229-.123.387s-.106.3-.158.422q-.317.95-.633,1.847-.317.924-.58,1.847a1.055,1.055,0,0,0,.211-.193,3.062,3.062,0,0,1,.246-.211,2.136,2.136,0,0,1,.246-.176.328.328,0,0,1,.193-.07.152.152,0,0,1,.106.053.133.133,0,0,1,.07.123,1.159,1.159,0,0,1-.211.211l-.317.264c-.106.088-.193.176-.281.246a.273.273,0,0,0-.123.194.691.691,0,0,0,.053.246,1.922,1.922,0,0,0,.141.264,1.194,1.194,0,0,0,.211.211A.355.355,0,0,0,109.113,262.463Z" transform="translate(-88.081 -255.48)" fill="#231f20"/>
          <path id="Path_356" data-name="Path 356" d="M123.636,276.2a.272.272,0,0,1,.141-.141.437.437,0,0,1,.141-.018.18.18,0,0,1,.088.106.3.3,0,0,1-.018.211c-.106.264-.193.545-.281.827q-.106.422-.211.739c-.018.053-.035.088-.088.106a.414.414,0,0,1-.141.035.19.19,0,0,1-.141-.035c-.053-.018-.07-.053-.088-.106a.193.193,0,0,1,0-.141c.018-.053.018-.106.035-.141.106-.281.193-.545.264-.774A4.363,4.363,0,0,1,123.636,276.2Zm.739-1.3c.123,0,.193.035.193.106a.317.317,0,0,1-.053.211,2.524,2.524,0,0,1-.246.387.243.243,0,0,1-.193.106.234.234,0,0,1-.141-.053c-.053-.035-.07-.07-.035-.123a1.4,1.4,0,0,1,.07-.158.25.25,0,0,0,.035-.106c.018-.035.035-.053.035-.088a1.039,1.039,0,0,1,.07-.141A.362.362,0,0,1,124.375,274.9Z" transform="translate(-101.037 -270.643)" fill="#231f20"/>
          <path id="Path_357" data-name="Path 357" d="M148.413,256.788a1.367,1.367,0,0,1,.528.317.745.745,0,0,1,.229.6.863.863,0,0,1-.018.194.992.992,0,0,1-.07.211.726.726,0,0,1-.123.194.24.24,0,0,1-.193.07.25.25,0,0,1-.106-.035.119.119,0,0,1-.07-.106.534.534,0,0,1,.053-.193.541.541,0,0,0,.053-.229.472.472,0,0,0-.246-.475,1.1,1.1,0,0,0-.616-.141,2.167,2.167,0,0,0-.915.211,4.028,4.028,0,0,0-.9.563,5.16,5.16,0,0,0-.809.827,8.657,8.657,0,0,0-.651.985,5.107,5.107,0,0,0-.44,1.073,3.843,3.843,0,0,0-.158,1.055.927.927,0,0,0,.07.4.847.847,0,0,0,.211.281.811.811,0,0,0,.3.158,1.135,1.135,0,0,0,.352.053,1.922,1.922,0,0,0,.756-.194,5.446,5.446,0,0,0,.827-.457,4.9,4.9,0,0,0,.739-.616,3.239,3.239,0,0,0,.528-.633c-.264.07-.545.123-.827.176a4.5,4.5,0,0,1-.827.07.621.621,0,0,1-.246-.053.177.177,0,0,1-.123-.194c0-.07.035-.106.088-.158a.734.734,0,0,1,.176-.07c.422-.035.827-.088,1.231-.158a5.361,5.361,0,0,0,1.179-.352c.035-.018.07-.018.106-.035a.3.3,0,0,1,.123-.018.265.265,0,0,1,.194.07.244.244,0,0,1,.088.176.217.217,0,0,1-.088.176.65.65,0,0,1-.194.088,1.856,1.856,0,0,0-.3.457,3.669,3.669,0,0,0-.281.7,6.073,6.073,0,0,0-.211.756,3.183,3.183,0,0,0-.088.633v.07a.541.541,0,0,1-.106.334.334.334,0,0,1-.264.141.338.338,0,0,1-.211-.07.2.2,0,0,1-.088-.176,3.023,3.023,0,0,1,.088-.651c.07-.229.123-.457.176-.668-.158.123-.352.246-.545.387a6.991,6.991,0,0,1-.616.352,5.047,5.047,0,0,1-.651.264,2.209,2.209,0,0,1-.668.106,1.713,1.713,0,0,1-.6-.106,1.337,1.337,0,0,1-.457-.281,1.3,1.3,0,0,1-.3-.44,1.459,1.459,0,0,1-.106-.563,4.138,4.138,0,0,1,.141-.932,5.45,5.45,0,0,1,.422-1.108,8.1,8.1,0,0,1,.651-1.126,5.991,5.991,0,0,1,.88-1,4.783,4.783,0,0,1,1.073-.721,3.035,3.035,0,0,1,1.267-.281,1.512,1.512,0,0,1,.281.018A1.246,1.246,0,0,1,148.413,256.788Z" transform="translate(-117.724 -255.645)" fill="#231f20"/>
          <path id="Path_358" data-name="Path 358" d="M178.057,282.466c.035-.018.07-.018.088.035a.141.141,0,0,1,.018.141,2.035,2.035,0,0,1-.352.44,4.224,4.224,0,0,1-.422.387,1.784,1.784,0,0,1-.457.281,1.069,1.069,0,0,1-.44.106.587.587,0,0,1-.264-.053.345.345,0,0,1-.158-.158.6.6,0,0,1-.07-.4c-.088.088-.194.176-.3.264a.947.947,0,0,1-.352.176.643.643,0,0,1-.317,0,.314.314,0,0,1-.229-.194.608.608,0,0,1-.035-.317,1.717,1.717,0,0,1,.106-.4,4.013,4.013,0,0,1,.176-.4,3.006,3.006,0,0,1,.193-.3.21.21,0,0,1,.229-.088c.088.018.141.053.141.088a.544.544,0,0,1-.035.141c-.035.07-.07.176-.141.3a1.493,1.493,0,0,0-.158.387,1.349,1.349,0,0,0-.088.334c-.018.088.018.141.088.141a.412.412,0,0,0,.3-.123c.088-.088.176-.176.264-.281a1.752,1.752,0,0,0,.211-.334c.07-.106.123-.193.176-.264a1.045,1.045,0,0,0,.07-.106c.018-.035.053-.088.07-.123.035-.035.053-.088.088-.123a.224.224,0,0,1,.106-.07.244.244,0,0,1,.158,0,.2.2,0,0,1,.123.088.134.134,0,0,1,.018.158.462.462,0,0,1-.088.158c-.053.088-.106.211-.176.334a1.952,1.952,0,0,0-.123.387.665.665,0,0,0-.018.317c.018.088.053.123.141.123a.652.652,0,0,0,.352-.123c.141-.088.264-.176.4-.281s.264-.229.387-.334C177.881,282.642,177.987,282.536,178.057,282.466Z" transform="translate(-143.491 -276.432)" fill="#231f20"/>
          <path id="Path_359" data-name="Path 359" d="M194.925,281.609c.035,0,.07.035.088.088a.248.248,0,0,1,.018.158.661.661,0,0,1-.158.281,1.422,1.422,0,0,1-.281.281,1.656,1.656,0,0,1-.387.211,1.225,1.225,0,0,1-.44.088.488.488,0,0,1-.422-.193.716.716,0,0,1-.141-.422c-.07.07-.141.158-.229.246a3.379,3.379,0,0,1-.264.246,1.745,1.745,0,0,1-.3.194.69.69,0,0,1-.317.07.481.481,0,0,1-.493-.493.622.622,0,0,1,.07-.3.891.891,0,0,1,.158-.281l.211-.264a2.8,2.8,0,0,1,.229-.229,4.423,4.423,0,0,1,.422-.334.916.916,0,0,1,.51-.158.439.439,0,0,1,.246.07.344.344,0,0,1,.141.229,1.206,1.206,0,0,0,.141.053c.053.018.088.07.123.158-.053.141-.088.264-.123.369a1.257,1.257,0,0,0-.035.369.632.632,0,0,0,.035.194c.035.07.07.106.141.106a.789.789,0,0,0,.334-.088,3.067,3.067,0,0,0,.317-.193,1.184,1.184,0,0,0,.264-.246C194.819,281.768,194.872,281.68,194.925,281.609Zm-2.815.967a.515.515,0,0,0,.352-.176,4.216,4.216,0,0,0,.369-.4,3.07,3.07,0,0,0,.281-.44,1.008,1.008,0,0,0,.123-.281.255.255,0,0,0-.035-.123c-.018-.035-.07-.035-.141,0a1.567,1.567,0,0,0-.51.352,3.232,3.232,0,0,0-.4.475,1.043,1.043,0,0,0-.193.4C191.952,282.506,192,282.577,192.11,282.577Z" transform="translate(-157.313 -275.505)" fill="#231f20"/>
          <path id="Path_360" data-name="Path 360" d="M208.4,278.406a.862.862,0,0,0-.07.176,1.306,1.306,0,0,0-.035.193.791.791,0,0,0,.018.193c.018.07.053.123.123.123A.524.524,0,0,0,208.7,279a.355.355,0,0,1,.246-.088.234.234,0,0,1,.176.053.137.137,0,0,1,.035.141.569.569,0,0,0-.035.106c-.018.07-.053.141-.088.246s-.053.211-.088.317a1.956,1.956,0,0,0-.035.3.78.78,0,0,0,.035.229c.035.07.088.088.176.088a.967.967,0,0,0,.281-.053,2.713,2.713,0,0,0,.334-.141,1.38,1.38,0,0,0,.317-.194,1.528,1.528,0,0,0,.246-.211c.018-.018.053,0,.106.035s.053.106,0,.176a1.313,1.313,0,0,1-.246.3,2.242,2.242,0,0,1-.334.229,1.67,1.67,0,0,1-.369.158,1.315,1.315,0,0,1-.352.053.523.523,0,0,1-.6-.475,1.275,1.275,0,0,1,.035-.44,2.2,2.2,0,0,1,.123-.4c-.035,0-.07.018-.106.018h-.123a.657.657,0,0,1-.211-.035c-.018.07-.053.158-.088.281a3.03,3.03,0,0,1-.123.369,3.025,3.025,0,0,0-.123.369c-.035.106-.07.194-.088.246a.271.271,0,0,1-.193.176q-.106,0-.211-.158a1.929,1.929,0,0,0,.141-.246c.053-.123.123-.264.176-.422.07-.158.123-.3.176-.44s.088-.246.123-.317a.627.627,0,0,1-.141-.4.565.565,0,0,1,.018-.141.8.8,0,0,1,.053-.194.256.256,0,0,1,.106-.158.226.226,0,0,1,.176-.07.254.254,0,0,1,.123.035C208.385,278.335,208.4,278.353,208.4,278.406Z" transform="translate(-170.288 -273.445)" fill="#231f20"/>
          <path id="Path_361" data-name="Path 361" d="M226.325,281.609c.035,0,.07.035.088.088a.248.248,0,0,1,.018.158.661.661,0,0,1-.158.281,1.421,1.421,0,0,1-.281.281,1.365,1.365,0,0,1-.387.211,1.225,1.225,0,0,1-.44.088.488.488,0,0,1-.422-.193.716.716,0,0,1-.141-.422c-.07.07-.141.158-.229.246a3.374,3.374,0,0,1-.264.246,1.744,1.744,0,0,1-.3.194.69.69,0,0,1-.317.07.481.481,0,0,1-.493-.493.621.621,0,0,1,.07-.3.893.893,0,0,1,.158-.281l.211-.264a2.8,2.8,0,0,1,.229-.229,4.419,4.419,0,0,1,.422-.334.916.916,0,0,1,.51-.158.439.439,0,0,1,.246.07.344.344,0,0,1,.141.229,1.206,1.206,0,0,0,.141.053c.053.018.088.07.123.158-.053.141-.088.264-.123.369a1.257,1.257,0,0,0-.035.369.632.632,0,0,0,.035.194c.035.07.07.106.141.106a.789.789,0,0,0,.334-.088,3.064,3.064,0,0,0,.317-.193,1.184,1.184,0,0,0,.264-.246A2.2,2.2,0,0,0,226.325,281.609Zm-2.815.967a.515.515,0,0,0,.352-.176,4.224,4.224,0,0,0,.369-.4,3.072,3.072,0,0,0,.281-.44,1.007,1.007,0,0,0,.123-.281.254.254,0,0,0-.035-.123c-.018-.035-.07-.035-.141,0a1.567,1.567,0,0,0-.51.352,3.23,3.23,0,0,0-.4.475,1.043,1.043,0,0,0-.193.4C223.369,282.506,223.4,282.577,223.51,282.577Z" transform="translate(-183.088 -275.505)" fill="#231f20"/>
          <path id="Path_362" data-name="Path 362" d="M243.052,283.556a.21.21,0,0,1,.141-.07.137.137,0,0,1,.07.07.437.437,0,0,1-.018.141.383.383,0,0,1-.088.141,3.15,3.15,0,0,1-.246.229,2.477,2.477,0,0,1-.317.211,2.1,2.1,0,0,1-.352.141,1.2,1.2,0,0,1-.334.053,1.312,1.312,0,0,1-.457-.07.553.553,0,0,1-.317-.281,1.317,1.317,0,0,1-.07-.281,1.694,1.694,0,0,1,0-.3v-.246c0-.07-.018-.088-.07-.088a.516.516,0,0,0-.334.176c-.141.123-.264.264-.4.4a4.679,4.679,0,0,1-.4.422.634.634,0,0,1-.317.229.294.294,0,0,1-.211-.018c-.07-.035-.123-.07-.123-.141a1.522,1.522,0,0,1,.053-.229c.035-.123.088-.264.141-.422s.106-.3.158-.44.088-.229.106-.281a.177.177,0,0,1,.176-.106.237.237,0,0,1,.211.088.273.273,0,0,1,.035.211,1.254,1.254,0,0,1-.158.457l.264-.264a1.488,1.488,0,0,1,.317-.264,1.438,1.438,0,0,1,.334-.158.6.6,0,0,1,.352,0,.364.364,0,0,1,.229.193.754.754,0,0,1,.088.281,1.913,1.913,0,0,1,.018.317.686.686,0,0,0,.035.281.254.254,0,0,0,.317.193,1.693,1.693,0,0,0,.6-.193A2.57,2.57,0,0,0,243.052,283.556Z" transform="translate(-196.26 -277.153)" fill="#231f20"/>
          <path id="Path_363" data-name="Path 363" d="M262.213,265.072h.563a1.038,1.038,0,0,1,.246.035.134.134,0,0,1,.106.141.139.139,0,0,1-.088.141.52.52,0,0,1-.176.035l-.809.018c-.07.176-.141.4-.229.651s-.176.493-.264.756a7.316,7.316,0,0,0-.211.774,2.493,2.493,0,0,0-.088.668.343.343,0,0,0,.018.123.117.117,0,0,0,.123.088.729.729,0,0,0,.352-.106,2.512,2.512,0,0,0,.352-.246,1.865,1.865,0,0,0,.264-.264,1.857,1.857,0,0,1,.141-.158c.141-.018.176.035.123.158a1.756,1.756,0,0,1-.211.334,3,3,0,0,1-.334.334,1.883,1.883,0,0,1-.387.264.856.856,0,0,1-.387.106.572.572,0,0,1-.457-.176.658.658,0,0,1-.158-.457,3.554,3.554,0,0,1,.088-.633c.07-.264.141-.528.229-.809s.176-.545.264-.809.158-.457.229-.616a.607.607,0,0,0-.158.018h-.211a.355.355,0,0,1-.194-.053.132.132,0,0,1-.088-.123c0-.053.035-.088.088-.123a.882.882,0,0,1,.211-.035h.246a.546.546,0,0,0,.193-.018c.088-.229.176-.422.246-.563s.141-.3.211-.457a1.538,1.538,0,0,1,.211-.352c.018-.018.035-.018.07-.018a.25.25,0,0,1,.106.035.175.175,0,0,1,.088.07c.018.035.035.053.035.088a.707.707,0,0,1-.07.229,3.433,3.433,0,0,1-.141.387c-.053.141-.088.264-.141.369A.6.6,0,0,1,262.213,265.072Z" transform="translate(-213.978 -261.413)" fill="#231f20"/>
          <path id="Path_364" data-name="Path 364" d="M272.545,281.985a.054.054,0,0,1,.035-.018l.053.053a.134.134,0,0,1,.035.088.159.159,0,0,1-.018.088,1.254,1.254,0,0,1-.457.51,2.785,2.785,0,0,1-.668.369,1.926,1.926,0,0,1-.457.106,1.309,1.309,0,0,1-.457-.035.657.657,0,0,1-.352-.211.77.77,0,0,1-.158-.44,1.482,1.482,0,0,1,.07-.475,2.026,2.026,0,0,1,.211-.44c.035-.07.088-.123.123-.193a1.864,1.864,0,0,1,.158-.194,1.339,1.339,0,0,1,.193-.141.486.486,0,0,1,.229-.053.3.3,0,0,1,.246.106.424.424,0,0,1,.07.264.762.762,0,0,1-.07.334,1.35,1.35,0,0,1-.176.317.575.575,0,0,1-.264.194.542.542,0,0,1-.334,0c-.018.053-.018.106-.035.193a.857.857,0,0,0,.018.211.3.3,0,0,0,.123.176.365.365,0,0,0,.264.07,1.434,1.434,0,0,0,.545-.106,3,3,0,0,0,.475-.246,2.049,2.049,0,0,0,.352-.281A1.515,1.515,0,0,0,272.545,281.985Zm-1.794-.193c0,.018-.018.035-.018.053s-.018.035-.018.053v.035c0,.018.018,0,.053,0a.325.325,0,0,0,.158-.123c.053-.053.106-.123.158-.176a.822.822,0,0,0,.088-.176.074.074,0,0,0-.053-.106.129.129,0,0,0-.106.035l-.106.106a.384.384,0,0,0-.088.141A.69.69,0,0,1,270.751,281.792Z" transform="translate(-221.724 -275.67)" fill="#231f20"/>
          <path id="Path_365" data-name="Path 365" d="M285.745,281.985a.055.055,0,0,1,.035-.018l.053.053a.134.134,0,0,1,.035.088.159.159,0,0,1-.018.088,1.254,1.254,0,0,1-.457.51,2.786,2.786,0,0,1-.668.369,1.744,1.744,0,0,1-.457.106,1.309,1.309,0,0,1-.457-.035.658.658,0,0,1-.352-.211.77.77,0,0,1-.158-.44,1.482,1.482,0,0,1,.07-.475,2.024,2.024,0,0,1,.211-.44c.035-.07.088-.123.123-.193a1.872,1.872,0,0,1,.158-.194,1.341,1.341,0,0,1,.194-.141.487.487,0,0,1,.229-.053.3.3,0,0,1,.246.106.424.424,0,0,1,.07.264.762.762,0,0,1-.07.334,1.351,1.351,0,0,1-.176.317.575.575,0,0,1-.264.194.542.542,0,0,1-.334,0c-.018.053-.018.106-.035.193a.855.855,0,0,0,.018.211.3.3,0,0,0,.123.176.365.365,0,0,0,.264.07,1.433,1.433,0,0,0,.545-.106,3,3,0,0,0,.475-.246,2.048,2.048,0,0,0,.352-.281Zm-1.812-.193c0,.018-.018.035-.018.053s-.018.035-.018.053v.035c0,.018.018,0,.053,0a.325.325,0,0,0,.158-.123c.053-.053.106-.123.158-.176a.415.415,0,0,0,.088-.176.106.106,0,0,0-.053-.106.129.129,0,0,0-.106.035l-.106.106a.383.383,0,0,0-.088.141A.692.692,0,0,1,283.933,281.792Z" transform="translate(-232.602 -275.67)" fill="#231f20"/>
        </g>
      </g>
    </g>
    <g id="Group_256" data-name="Group 256" transform="translate(0 -0.3)">
      <rect id="Rectangle_165" data-name="Rectangle 165" width="53.301" height="26.914" fill="#fbdf00"/>
      <path id="Path_366" data-name="Path 366" d="M42.737,51.263c-.246-.088-.51-.158-.809-.246a9.983,9.983,0,0,0-1.02-.229,9.071,9.071,0,0,0-1.249-.088,5.657,5.657,0,0,0-3.131.967A4.882,4.882,0,0,0,35.279,52.9a5.657,5.657,0,0,0-.862,1.724,7.289,7.289,0,0,0-.317,2.234,6.528,6.528,0,0,0,.369,2.3,5.368,5.368,0,0,0,.95,1.654,5.444,5.444,0,0,0,1.319,1.091,6.514,6.514,0,0,0,1.478.6,6.09,6.09,0,0,0,1.442.176,10.16,10.16,0,0,0,1.319-.088c.4-.07.774-.141,1.091-.229s.616-.176.88-.264V60.815c-.246.106-.51.211-.809.317a7.091,7.091,0,0,1-1.02.281,8.832,8.832,0,0,1-1.267.123,4.462,4.462,0,0,1-2.023-.422,3.672,3.672,0,0,1-1.372-1.091,4.491,4.491,0,0,1-.774-1.53,5.827,5.827,0,0,1-.246-1.759,6.123,6.123,0,0,1,.264-1.777,5.052,5.052,0,0,1,.792-1.566,3.71,3.71,0,0,1,1.337-1.108,4.11,4.11,0,0,1,1.917-.422,4.851,4.851,0,0,1,1.179.123,7.242,7.242,0,0,1,.985.281c.3.123.58.229.862.352V51.263" transform="translate(-28.101 -41.729)" fill="#0d67b1"/>
      <path id="Path_367" data-name="Path 367" d="M101.986,60.428c-.088.07-.211.176-.352.281a3.251,3.251,0,0,1-.475.334,4.766,4.766,0,0,1-.475.281.909.909,0,0,1-.369.123.351.351,0,0,1-.158-.035.309.309,0,0,1-.07-.088c0-.035-.018-.106-.018-.229s-.018-.246-.018-.4v-6.28a10.777,10.777,0,0,0-.035-1.126,2.977,2.977,0,0,0-.194-.844,2.556,2.556,0,0,0-.475-.721,2.711,2.711,0,0,0-.844-.6,4.175,4.175,0,0,0-1.038-.317,5.434,5.434,0,0,0-1.02-.106,5.224,5.224,0,0,0-1.214.141,5.78,5.78,0,0,0-1.02.334,7.282,7.282,0,0,0-.827.4q-.369.211-.633.369V53.2a11.735,11.735,0,0,1,1.161-.756,4.559,4.559,0,0,1,2.392-.633,3.3,3.3,0,0,1,1.513.3,1.681,1.681,0,0,1,.792.809,2.819,2.819,0,0,1,.229,1.179v1.46c-.264,0-.616.035-1.055.07-.422.035-.9.123-1.407.211a9.275,9.275,0,0,0-1.513.44,5.687,5.687,0,0,0-1.372.739,3.468,3.468,0,0,0-1,1.143,3.286,3.286,0,0,0-.387,1.618,2.719,2.719,0,0,0,.246,1.143,2.666,2.666,0,0,0,.686.915,3.33,3.33,0,0,0,.985.616,3.8,3.8,0,0,0,1.2.229,4.63,4.63,0,0,0,1.231-.158,4.934,4.934,0,0,0,1.02-.387,5.539,5.539,0,0,0,.792-.475,6.643,6.643,0,0,0,.563-.422,6.953,6.953,0,0,0,.088.756.921.921,0,0,0,.229.493.66.66,0,0,0,.528.176,2.128,2.128,0,0,0,.95-.317,11.776,11.776,0,0,0,1.355-.9v-1.02m-3.131-.281a6,6,0,0,1-.58.493,5.744,5.744,0,0,1-.721.493,4.436,4.436,0,0,1-.88.387,3.182,3.182,0,0,1-1.02.141,2.877,2.877,0,0,1-.739-.106,2.334,2.334,0,0,1-.739-.334,1.964,1.964,0,0,1-.563-.581,1.717,1.717,0,0,1-.229-.88,2.348,2.348,0,0,1,.194-.95,3.346,3.346,0,0,1,.528-.774,4.2,4.2,0,0,1,.756-.6,4.729,4.729,0,0,1,.844-.422,6.092,6.092,0,0,1,1.143-.317c.387-.07.756-.106,1.126-.141.352-.018.651-.035.9-.035v3.624Z" transform="translate(-75.557 -41.729)" fill="#0d67b1"/>
      <path id="Path_368" data-name="Path 368" d="M165.851,52.055a4.341,4.341,0,0,0-.51-.422c-.194-.158-.4-.3-.616-.44a3.426,3.426,0,0,0-.721-.352,2.317,2.317,0,0,0-.774-.141,2.575,2.575,0,0,0-1.126.264,4.629,4.629,0,0,0-1.02.668,7.977,7.977,0,0,0-.862.862,8.191,8.191,0,0,0-.668.844c-.176.264-.334.475-.422.616V50.929H157.9v11.5h1.231V55.2a10.97,10.97,0,0,1,.809-1.2,8.948,8.948,0,0,1,.915-1.038,4.649,4.649,0,0,1,.985-.739,2.164,2.164,0,0,1,1-.281,1.874,1.874,0,0,1,.844.211,4.435,4.435,0,0,1,.774.493,7.479,7.479,0,0,1,.668.563l.721-1.161" transform="translate(-129.563 -41.729)" fill="#0d67b1"/>
      <path id="Path_369" data-name="Path 369" d="M215.161,56.141a9.9,9.9,0,0,0-.088-1.231,4.938,4.938,0,0,0-.387-1.3,4.692,4.692,0,0,0-.616-1.055,5.476,5.476,0,0,0-.95-.968,4.6,4.6,0,0,0-1.337-.7,5.7,5.7,0,0,0-1.724-.281,5,5,0,0,0-2.216.475,4.937,4.937,0,0,0-1.654,1.284,5.709,5.709,0,0,0-1.038,1.865,7.021,7.021,0,0,0-.352,2.2,6.914,6.914,0,0,0,.229,1.812,6.359,6.359,0,0,0,.7,1.671,6.165,6.165,0,0,0,1.161,1.372,5.322,5.322,0,0,0,1.6.932,5.776,5.776,0,0,0,2.041.334,6.889,6.889,0,0,0,1.759-.211,6.294,6.294,0,0,0,1.46-.563,7.361,7.361,0,0,0,1.2-.774v-1.39a8.291,8.291,0,0,1-.651.528,8.636,8.636,0,0,1-.932.581,5.816,5.816,0,0,1-1.214.475,5.735,5.735,0,0,1-1.513.193,5.117,5.117,0,0,1-1.337-.193,4.8,4.8,0,0,1-1.249-.6,4.47,4.47,0,0,1-1.038-1.038,4.764,4.764,0,0,1-.686-1.478,6.789,6.789,0,0,1-.211-1.953h9.042m-8.883-.95a4.487,4.487,0,0,1,.563-1.548,3.933,3.933,0,0,1,.915-1.073,4,4,0,0,1,1.126-.633,3.555,3.555,0,0,1,2.92.229,3.391,3.391,0,0,1,1.214,1.179,4.268,4.268,0,0,1,.475,1,4.549,4.549,0,0,1,.211.844Z" transform="translate(-167.876 -41.646)" fill="#0d67b1"/>
      <rect id="Rectangle_166" data-name="Rectangle 166" width="10.379" height="1.196" transform="translate(36.924 5.999)" fill="#0d67b1"/>
      <path id="Path_370" data-name="Path 370" d="M0,172.5H.475v1.442H2.269V172.5h.475v3.483H2.269v-1.636H.475v1.636H0Z" transform="translate(0 -142.103)" fill="#0d67b1"/>
      <path id="Path_371" data-name="Path 371" d="M21.8,172.5h2.516v.422H22.257v1.055h1.9v.4h-1.9v1.179h2.093v.422H21.8Z" transform="translate(-17.965 -142.103)" fill="#0d67b1"/>
      <path id="Path_372" data-name="Path 372" d="M41.2,172.5h.528L43,175.983h-.51l-.369-1.038H40.744l-.369,1.038H39.9Zm.774,2.058-.528-1.53-.563,1.53Z" transform="translate(-32.881 -142.103)" fill="#0d67b1"/>
      <path id="Path_373" data-name="Path 373" d="M61.6,172.5h.457v3.061h1.759v.422H61.6Z" transform="translate(-50.57 -142.103)" fill="#0d67b1"/>
      <path id="Path_374" data-name="Path 374" d="M77.715,172.5v.422H76.536v3.061h-.475v-3.061H74.9V172.5Z" transform="translate(-61.486 -142.103)" fill="#0d67b1"/>
      <path id="Path_375" data-name="Path 375" d="M95.1,172.5h.475v1.442h1.777V172.5h.475v3.483h-.475v-1.636H95.575v1.636H95.1Z" transform="translate(-78.069 -142.103)" fill="#0d67b1"/>
      <rect id="Rectangle_167" data-name="Rectangle 167" width="0.475" height="3.483" transform="translate(22.637 30.397)" fill="#0d67b1"/>
      <path id="Path_376" data-name="Path 376" d="M135.2,172.5h.545l1.742,2.815V172.5h.457v3.483h-.528l-1.777-2.815v2.815h-.44Z" transform="translate(-110.987 -142.103)" fill="#0d67b1"/>
      <path id="Path_377" data-name="Path 377" d="M156.522,174.445a.947.947,0,0,0,.141.475.9.9,0,0,0,.792.352,1.348,1.348,0,0,0,.475-.07.554.554,0,0,0,.4-.528.445.445,0,0,0-.176-.4,2.519,2.519,0,0,0-.545-.211l-.457-.106a1.934,1.934,0,0,1-.633-.229.741.741,0,0,1-.317-.651,1.034,1.034,0,0,1,.317-.774,1.283,1.283,0,0,1,.9-.3,1.5,1.5,0,0,1,.9.264.966.966,0,0,1,.369.844h-.44a.792.792,0,0,0-.141-.422.842.842,0,0,0-.7-.264.792.792,0,0,0-.581.176.534.534,0,0,0-.176.4.378.378,0,0,0,.211.369,3.7,3.7,0,0,0,.616.193l.475.106a1.493,1.493,0,0,1,.528.211.839.839,0,0,1,.317.7.9.9,0,0,1-.4.827,1.909,1.909,0,0,1-.95.246,1.339,1.339,0,0,1-.985-.334,1.107,1.107,0,0,1-.352-.9h.422Z" transform="translate(-128.144 -141.691)" fill="#0d67b1"/>
      <path id="Path_378" data-name="Path 378" d="M177.557,172.5v2.146a1.4,1.4,0,0,0,.141.633.78.78,0,0,0,.721.387.878.878,0,0,0,.827-.4,1.379,1.379,0,0,0,.123-.6v-2.146h.475v1.953a2.146,2.146,0,0,1-.176.985,1.216,1.216,0,0,1-1.2.633,1.2,1.2,0,0,1-1.2-.633,2.146,2.146,0,0,1-.176-.985v-1.953h.457Z" transform="translate(-145.383 -142.103)" fill="#0d67b1"/>
      <path id="Path_379" data-name="Path 379" d="M198.7,172.5h1.583a1.434,1.434,0,0,1,.651.123.821.821,0,0,1,.475.827,1.038,1.038,0,0,1-.123.51.869.869,0,0,1-.352.317.654.654,0,0,1,.3.211.7.7,0,0,1,.106.44l.018.475a1.147,1.147,0,0,0,.035.3c.035.106.07.176.158.211v.07h-.581a.254.254,0,0,1-.035-.123,1.1,1.1,0,0,1-.018-.281l-.035-.581a.485.485,0,0,0-.246-.457,1.116,1.116,0,0,0-.4-.07h-1.038v1.5h-.475V172.5Zm1.53,1.6a.877.877,0,0,0,.51-.141.549.549,0,0,0,.193-.475.521.521,0,0,0-.264-.51.728.728,0,0,0-.369-.07h-1.126v1.2Z" transform="translate(-163.113 -142.103)" fill="#0d67b1"/>
      <path id="Path_380" data-name="Path 380" d="M219.6,172.5h.528l1.267,3.483h-.51l-.369-1.038h-1.372l-.369,1.038H218.3Zm.774,2.058-.528-1.53-.563,1.53Z" transform="translate(-179.2 -142.103)" fill="#0d67b1"/>
      <path id="Path_381" data-name="Path 381" d="M239.9,172.5h.563l1.741,2.815V172.5h.44v3.483h-.528l-1.759-2.815v2.815H239.9Z" transform="translate(-196.801 -142.103)" fill="#0d67b1"/>
      <path id="Path_382" data-name="Path 382" d="M263.221,172.425a1.238,1.238,0,0,1,.4.792h-.457a.975.975,0,0,0-.3-.528,1.024,1.024,0,0,0-.651-.194.986.986,0,0,0-.809.369,1.666,1.666,0,0,0-.317,1.108,1.56,1.56,0,0,0,.281.985,1.022,1.022,0,0,0,.844.387.885.885,0,0,0,.774-.4,1.764,1.764,0,0,0,.211-.545h.457a1.512,1.512,0,0,1-.4.915,1.4,1.4,0,0,1-1.108.44,1.412,1.412,0,0,1-1-.369,1.94,1.94,0,0,1-.545-1.5,1.986,1.986,0,0,1,.4-1.267,1.475,1.475,0,0,1,1.2-.528,1.288,1.288,0,0,1,1.02.334" transform="translate(-213.86 -141.764)" fill="#0d67b1"/>
      <path id="Path_383" data-name="Path 383" d="M283.3,172.5h2.533v.422h-2.076v1.055h1.917v.4h-1.917v1.179h2.111v.422H283.3Z" transform="translate(-232.567 -142.103)" fill="#0d67b1"/>
    </g>
  </g>
</svg>
